<svg version="1.1" id="Layer_1" xmlns="http://www.w3.org/2000/svg" xmlns:xlink="http://www.w3.org/1999/xlink" x="0px" y="0px"
	 width="100%" viewBox="0 0 592 688" enable-background="new 0 0 592 688" xml:space="preserve">
<path fill="#000000" opacity="1.000000" stroke="none" 
	d="
M391.672546,351.694519 
	C389.910614,354.741119 390.210663,357.231171 391.672882,360.031921 
	C394.040924,364.567871 396.654724,369.135529 395.338013,374.690521 
	C394.979156,376.204468 396.003418,377.551727 396.782532,378.847107 
	C397.557739,380.136047 398.757538,381.746155 397.933350,383.008942 
	C394.880585,387.686188 397.670776,391.405609 399.803589,395.000977 
	C406.539612,406.356110 409.906036,418.852783 412.621643,431.572540 
	C413.785675,437.024902 415.887115,441.418579 421.033813,444.416962 
	C425.782806,447.183716 429.354034,451.556671 433.088043,455.592621 
	C434.731964,457.369537 435.838989,459.400970 434.888031,461.953369 
	C434.014587,464.297821 435.515137,466.091492 436.226318,468.096832 
	C438.469391,474.421631 441.371338,480.275085 438.650635,487.720032 
	C436.937744,492.407288 438.239288,498.264679 438.507507,503.581055 
	C438.662170,506.646820 441.062744,506.982605 443.647766,506.877747 
	C449.639099,506.634644 455.617157,506.711975 461.621948,507.074097 
	C469.282867,507.536133 475.517487,512.201965 482.863739,513.556702 
	C486.919434,514.304626 490.834381,515.916870 494.743805,517.330200 
	C499.036072,518.881958 503.209900,520.610779 503.631073,526.215271 
	C503.705658,527.207336 504.725372,528.266296 505.546295,529.043396 
	C515.603455,538.563965 518.936401,550.490967 518.292297,563.931519 
	C517.894897,572.225159 517.980225,572.229248 524.287231,575.391541 
	C523.565491,577.487976 521.376770,576.478638 519.951050,577.435974 
	C521.753540,578.785767 524.677368,577.100708 526.017334,579.954834 
	C522.249817,582.178589 517.676514,580.050842 513.788513,582.536743 
	C517.777222,584.460571 522.142578,581.821594 527.172607,583.621277 
	C521.296326,587.001526 515.676147,585.575195 509.905151,586.888855 
	C513.912415,589.559692 518.266602,584.897461 521.642700,588.759277 
	C519.220032,591.429443 515.961914,590.521362 513.106873,591.375549 
	C514.743713,592.516846 517.129578,591.533875 518.541565,593.747742 
	C514.429993,596.421143 512.003845,601.670654 505.922546,601.000610 
	C506.957031,605.655029 503.828156,605.201355 501.249603,605.378235 
	C498.607300,605.559631 495.912048,605.011902 493.212402,605.958313 
	C492.300964,607.297974 494.892365,606.944275 494.009735,608.673523 
	C490.781982,610.850220 486.578888,610.116333 482.549194,610.325134 
	C479.685547,610.473511 476.388702,609.467163 474.974274,613.416626 
	C474.613403,614.424133 473.273041,614.246765 472.284576,614.322632 
	C452.375702,615.849609 432.387360,617.008423 412.491364,615.962769 
	C404.288544,615.531677 395.580383,613.246216 387.915771,608.498596 
	C392.393524,608.301514 395.661743,605.706665 399.124207,603.592041 
	C399.639709,602.411133 399.029266,601.424683 398.225800,600.962646 
	C393.896301,598.472900 391.940857,595.311829 394.410858,590.340210 
	C394.953064,589.248901 394.211731,588.002136 392.867401,587.637268 
	C391.491302,587.263794 389.839203,587.329407 389.611298,588.965454 
	C389.084656,592.745911 386.187164,591.992065 383.881989,592.234558 
	C377.881744,592.865723 371.701324,591.460999 365.486725,593.580994 
	C368.048401,596.203796 371.755951,593.865234 374.200226,596.591125 
	C373.414734,596.895752 372.853729,597.254150 372.259460,597.322205 
	C366.116760,598.026123 359.865112,596.174744 353.789581,599.992554 
	C351.040680,601.720032 346.328033,600.230286 342.512634,600.372314 
	C334.927704,600.654663 327.445068,600.738586 319.800354,602.106445 
	C307.226013,604.356262 294.256714,603.072449 281.444641,603.036377 
	C266.555756,602.994446 251.869141,599.749023 236.881409,600.754456 
	C231.491852,601.116089 225.892929,600.733154 220.444626,600.228088 
	C216.758667,599.886292 214.076096,595.715515 209.587021,596.959595 
	C214.694916,594.486084 220.048370,595.405701 225.713425,594.994263 
	C224.186905,591.647766 221.630798,591.216980 218.988663,591.203918 
	C209.663528,591.157898 200.327957,590.945129 191.016037,591.304993 
	C184.669205,591.550293 178.441086,589.820190 172.099304,590.633179 
	C171.329819,590.731873 170.438507,590.413757 169.972290,588.840637 
	C177.522308,587.164612 185.201935,588.786377 192.660675,587.636292 
	C180.671936,585.001404 168.396698,587.628784 156.324112,585.742310 
	C165.206711,583.952393 174.327881,585.690308 183.148376,583.095886 
	C170.926422,579.869141 158.205460,582.542053 145.851364,580.915161 
	C145.851852,580.418030 145.852325,579.920837 145.852814,579.423706 
	C156.806656,579.423706 167.760498,579.423706 178.714340,579.423706 
	C163.970551,576.197449 148.911057,579.392090 132.837021,576.457886 
	C137.065567,573.811707 140.489075,575.355408 144.484039,574.352783 
	C137.166351,573.874573 130.750320,573.455200 124.334290,573.035889 
	C129.142075,569.695374 134.908279,571.736328 140.117310,569.279175 
	C131.862579,568.874695 123.938210,568.486450 116.013847,568.098206 
	C123.415771,563.802063 131.870239,567.258301 139.762787,564.356934 
	C138.073502,562.436890 135.177475,563.803345 133.764175,561.378296 
	C138.721817,559.480042 143.802536,559.442139 148.500854,560.390991 
	C153.812225,561.463684 157.918976,559.172119 162.185852,557.273132 
	C165.181793,555.939758 163.070023,554.039001 161.744385,552.603027 
	C155.849854,546.217712 150.238937,539.581726 146.540802,531.658447 
	C140.985413,519.755981 135.413864,507.840393 137.552490,494.003662 
	C138.088760,490.534027 137.535034,487.157745 135.951630,483.531830 
	C134.273956,479.690186 137.208511,475.193176 138.311508,471.051819 
	C139.285553,467.394714 140.723907,463.963867 141.149857,460.053223 
	C141.658035,455.387665 145.218887,451.761353 149.015167,449.517548 
	C158.761810,443.756866 162.615158,435.069183 164.494980,424.377533 
	C166.519928,412.860596 171.517563,402.227631 177.135986,391.967529 
	C177.615341,391.092133 178.723419,389.845062 178.461578,389.387573 
	C174.777222,382.950287 181.309143,377.504547 180.052979,371.247620 
	C179.135315,366.676727 182.208527,363.013367 184.177017,359.213806 
	C185.459351,356.738678 186.744736,354.537048 184.248001,352.001831 
	C183.001587,350.736237 183.559036,349.180908 184.583908,347.922028 
	C185.210968,347.151794 185.997894,346.514099 186.680023,345.785980 
	C195.306625,336.577362 195.259537,335.372559 185.984619,327.338715 
	C177.519714,320.006500 177.566284,320.105865 167.105484,325.006927 
	C163.859528,326.527710 161.087494,329.853271 156.310272,328.497833 
	C158.846191,324.833984 162.727829,323.969543 165.908676,322.135376 
	C168.354370,320.725128 171.021576,319.704651 173.531738,318.398346 
	C174.938797,317.666077 175.934464,316.483948 175.547943,314.750122 
	C175.161819,313.018036 173.799149,312.171753 172.189270,312.420044 
	C165.789474,313.406982 165.203247,309.067963 164.701721,304.529968 
	C163.992126,298.109131 162.529465,297.044312 156.308655,298.708618 
	C150.439758,300.278839 144.620392,302.034180 138.211212,303.870850 
	C138.604431,300.514526 140.557419,300.142181 142.133133,299.583618 
	C146.834335,297.917023 151.573288,296.353302 156.324585,294.834106 
	C157.591370,294.429077 159.109024,294.418091 159.436493,292.806702 
	C159.776199,291.134979 158.371765,290.546356 157.232101,289.872162 
	C151.147476,286.272675 151.008759,284.877563 156.255478,279.941010 
	C159.816635,276.590363 159.535202,274.748138 154.941132,272.836670 
	C152.636246,271.877686 150.718765,270.678864 150.377045,268.060272 
	C150.020538,265.328522 152.704636,265.110687 154.188751,264.038696 
	C160.959518,259.148041 165.645111,252.810806 167.180740,244.577362 
	C168.817719,235.800735 171.662598,227.522476 176.088486,219.803421 
	C177.719315,216.959167 177.718277,214.520447 176.410767,211.390198 
	C172.250671,201.430649 171.659454,190.703674 170.846802,180.116165 
	C169.620285,164.136353 169.681824,148.196823 174.650101,132.687851 
	C175.156357,131.107529 175.736862,129.545334 176.379303,128.015198 
	C180.937271,117.159340 186.349808,115.122818 196.722656,120.178734 
	C208.475632,125.907326 219.279587,132.955536 228.427765,142.395737 
	C233.101425,147.218582 239.275558,149.941711 244.631454,153.813095 
	C245.159775,154.194962 246.101517,154.227356 246.379410,154.699661 
	C250.222717,161.231659 255.442764,159.251205 261.460724,158.336624 
	C268.131256,157.322861 273.716583,154.697571 279.520752,151.826294 
	C283.996155,149.612366 288.525848,146.939621 293.792175,151.313354 
	C296.068817,153.204147 299.949615,151.355606 303.096710,151.624298 
	C304.720428,151.762909 307.132019,151.117752 307.678375,152.778610 
	C310.026550,159.916946 317.090210,157.010376 321.524292,159.597275 
	C322.479858,160.154739 323.849243,159.673538 324.823730,158.926682 
	C332.528961,153.021240 340.546051,147.546753 347.539795,140.702454 
	C357.012054,131.432663 367.738647,123.780365 380.071960,118.761604 
	C389.946838,114.743248 394.575073,116.757408 398.404785,126.610466 
	C404.032471,141.089371 405.619690,156.210480 404.494507,171.629333 
	C403.962494,178.919434 402.911896,186.176117 402.520996,193.470703 
	C402.193268,199.586105 400.279816,205.227646 398.305878,210.876541 
	C397.295258,213.768631 397.439423,216.323578 398.968292,218.977142 
	C403.818512,227.395538 407.295868,236.171265 408.737579,245.994751 
	C409.763306,252.984039 414.143616,258.678558 420.722290,262.415100 
	C426.740875,265.833527 426.729889,269.088287 420.686127,272.196503 
	C416.534668,274.331512 417.307770,276.390594 419.693726,279.099579 
	C424.455566,284.505951 424.275330,285.462646 418.031891,288.777863 
	C417.311462,289.160431 416.650116,289.677368 416.029053,290.210785 
	C415.820862,290.389618 415.823273,290.813690 415.565186,291.671570 
	C422.232300,296.328278 431.641296,295.611328 437.982544,301.350189 
	C436.649475,303.389832 435.583099,302.313965 434.566620,302.037079 
	C428.630127,300.420197 422.675720,298.864166 416.768494,297.146271 
	C412.235291,295.828003 410.576996,298.051117 410.281647,302.098511 
	C410.124390,304.253082 410.292267,306.441803 409.355560,308.482758 
	C408.286163,310.812714 406.752777,312.499512 403.948456,311.588409 
	C402.253418,311.037689 400.757660,310.319550 399.837921,312.581329 
	C398.854370,315.000000 400.688324,315.934509 402.231873,316.829376 
	C406.409851,319.251556 410.684784,321.506042 414.874237,323.909058 
	C416.393707,324.780640 418.389709,325.161713 419.020447,327.562958 
	C417.253876,329.030090 415.610382,327.835419 414.157257,327.084808 
	C410.015656,324.945435 405.964172,322.631805 401.874664,320.391479 
	C398.332031,318.450714 395.317108,318.415833 392.938660,322.349518 
	C391.105591,325.381226 388.312347,327.582367 385.428650,329.591614 
	C381.637482,332.233154 381.323578,335.426880 383.888550,339.025299 
	C385.821472,341.737030 387.888672,344.353851 389.923737,346.991608 
	C390.923859,348.287842 392.373810,349.368500 391.672546,351.694519 
M200.472336,536.718140 
	C204.485779,533.751221 209.616669,531.262695 205.520050,524.835510 
	C205.368057,524.597046 205.338898,524.075684 205.495117,523.875793 
	C208.274643,520.318359 205.321747,517.703186 204.064560,514.795593 
	C203.423050,513.312012 201.615540,510.953613 202.819916,510.341766 
	C206.692307,508.374542 203.577713,506.625305 203.041626,504.941223 
	C202.499969,503.239532 201.477142,501.691071 200.598251,499.942444 
	C205.071014,498.622711 203.021072,496.187897 202.054459,494.001007 
	C201.016479,491.652679 198.586945,489.501709 200.475449,486.678253 
	C202.311432,483.933441 202.107880,481.084564 200.619064,478.653625 
	C196.860428,472.516541 196.241867,465.510742 194.555618,458.805817 
	C192.421341,450.319458 193.836838,441.950470 195.847839,433.652039 
	C196.074280,432.717712 196.623352,431.764343 198.254303,432.068146 
	C200.126328,434.400299 198.500122,436.993042 198.378571,439.502472 
	C198.285385,441.426147 197.054932,443.804535 199.048080,445.098877 
	C201.543427,446.719330 201.468582,448.940216 201.321350,451.229004 
	C201.037491,455.642151 201.998718,459.826324 203.297211,463.966888 
	C204.589905,468.088867 205.916763,472.200928 207.289780,476.296814 
	C211.725922,489.530273 214.965576,503.135834 220.834351,515.928101 
	C226.311890,527.867493 231.485123,539.998657 235.386398,552.570068 
	C237.315781,558.787292 238.747269,565.117432 231.263992,569.562317 
	C228.067703,571.460815 227.049469,575.519775 226.533997,579.187622 
	C225.858871,583.991455 228.932312,588.123657 233.690994,588.840393 
	C233.745926,584.379456 233.168549,579.745789 236.082535,575.891235 
	C236.987030,574.694824 238.016830,573.297729 239.759537,574.221680 
	C241.346390,575.062866 240.668213,576.525757 240.189880,577.755310 
	C238.942291,580.962219 238.830795,584.286804 239.329422,587.605469 
	C239.947021,591.716003 243.363861,594.163086 247.537064,593.955627 
	C252.529739,593.707397 251.639725,590.231018 251.530731,587.078125 
	C251.479095,585.584473 251.398224,584.037537 251.709366,582.596558 
	C252.431061,579.254211 253.058258,575.702515 257.670288,574.958496 
	C259.114380,578.836426 256.433167,582.194702 257.061981,585.831909 
	C258.059052,591.599060 260.928711,593.850952 266.434540,592.168335 
	C272.120087,590.430725 276.453125,587.137085 278.478271,581.200989 
	C281.863708,571.277527 280.547455,561.122498 280.264954,551.004578 
	C279.860657,536.523193 277.113007,522.255676 276.519928,507.770325 
	C276.092102,497.320770 275.147522,486.708160 268.389771,477.903076 
	C263.938690,472.103546 259.659882,466.199493 255.572540,460.135742 
	C252.840851,456.083191 250.043610,452.313263 245.522324,449.447998 
	C241.943115,447.179749 240.054733,442.326721 234.888809,441.536865 
	C233.815674,441.372803 232.602936,439.467407 232.182602,438.134827 
	C230.041122,431.346344 227.247696,424.629547 228.619019,417.234650 
	C228.812317,416.192291 228.407425,414.810181 230.302124,414.400879 
	C234.180450,419.085999 229.805511,426.458008 234.844711,431.051514 
	C236.626221,429.307495 235.481110,426.310303 238.425156,426.105042 
	C242.112213,430.308990 239.355316,437.532379 245.214691,440.930145 
	C246.239594,439.572174 245.204971,437.430298 247.711166,436.921936 
	C249.906998,439.498840 250.546646,443.024323 252.018021,446.099365 
	C253.660797,449.532684 255.432083,451.975311 259.196503,448.410156 
	C263.580872,451.960175 264.146912,458.265961 268.667816,461.365692 
	C270.522003,459.995605 268.944489,457.910309 270.791809,457.011963 
	C273.249634,458.090851 273.257294,460.712189 274.199890,462.718567 
	C274.763184,463.917542 275.179352,465.899506 276.621643,465.360626 
	C280.440704,463.933685 280.183472,467.044678 281.082764,468.884003 
	C282.029083,470.819611 282.649506,472.952271 283.819214,474.731201 
	C285.241882,476.894653 286.677612,477.537811 288.733307,474.746643 
	C291.076233,471.565399 292.866577,468.080353 295.050720,464.308624 
	C298.403503,467.147003 299.797119,465.091492 301.203461,462.389801 
	C302.817688,459.288788 304.125031,455.891418 307.069427,453.726288 
	C308.887360,455.082855 306.815491,456.908112 308.522614,458.342621 
	C313.665100,455.166138 315.245056,448.817780 319.306122,445.090637 
	C321.312195,445.118683 320.274139,447.849792 321.457947,447.657623 
	C326.680054,444.614899 323.244598,435.017944 332.204071,435.854095 
	C336.159241,431.447876 333.886993,425.334229 336.000458,420.413025 
	C337.814240,419.773407 339.025604,422.253052 341.138153,420.869598 
	C344.062317,417.202240 341.753937,412.262115 342.969574,407.638062 
	C345.404755,411.260284 345.523743,419.045197 345.107422,424.125427 
	C344.447845,432.173981 337.532654,436.211273 334.263916,442.594513 
	C331.062103,448.847107 324.923492,453.606476 320.017059,458.969238 
	C318.451721,460.680115 316.288910,461.920929 315.362701,464.125946 
	C312.576111,470.759979 308.775085,476.771729 304.657104,482.640289 
	C301.559296,487.054962 300.272125,491.867035 300.120789,497.523926 
	C299.765442,510.804108 298.614838,524.082642 297.282410,537.311096 
	C296.146484,548.588806 294.849396,559.860535 295.460175,571.181335 
	C295.922150,579.743774 299.277191,587.034241 307.574371,591.015991 
	C310.632965,592.483826 314.080872,593.961853 316.956146,591.331177 
	C320.039581,588.510132 320.232147,584.682983 318.918060,580.684448 
	C318.367676,579.009705 316.581085,577.181519 318.717072,575.051086 
	C322.000275,575.642700 323.305542,578.212830 323.919189,580.946411 
	C324.456207,583.338623 324.315613,585.902466 324.319000,588.390686 
	C324.324799,592.619934 326.411865,594.038879 330.412689,593.265503 
	C336.037598,592.178223 338.152191,587.843201 336.576599,580.789917 
	C336.063141,578.491394 334.158142,576.364929 335.578796,573.225037 
	C338.949707,574.132080 340.161987,576.612549 341.464447,579.354614 
	C342.843048,582.256897 341.335968,585.686890 343.390015,588.556458 
	C347.237823,587.625610 348.390930,584.760193 348.819885,581.527527 
	C349.588806,575.732483 347.361145,571.045410 342.869781,567.493347 
	C339.822235,565.083069 338.489746,562.054626 339.027679,558.312561 
	C339.594208,554.371460 340.494080,550.524475 341.818024,546.709106 
	C349.018829,525.957764 358.962891,506.250977 365.166992,485.125397 
	C368.971252,472.171326 373.960022,459.501343 374.565887,446.012756 
	C382.136047,442.379242 374.539948,435.680206 377.248383,431.236450 
	C378.532806,431.478546 378.917267,432.179962 379.261627,432.963806 
	C384.793365,445.555573 383.373688,458.787262 377.847198,470.059570 
	C372.737946,480.480804 374.857391,491.361511 371.432831,501.516632 
	C371.386353,501.654388 371.447266,501.857147 371.516785,502.001221 
	C374.859680,508.928375 370.004883,514.661560 368.756256,520.916504 
	C367.935547,525.027954 365.749481,530.024536 369.316193,532.893188 
	C372.798523,535.694031 373.550903,538.004211 371.710602,541.744690 
	C373.528595,542.133240 374.285370,541.167847 375.121155,540.432678 
	C378.036652,537.868103 381.407776,538.267090 384.487427,539.580261 
	C387.989655,541.073669 390.560272,541.756714 394.419647,539.280701 
	C396.776764,537.768433 400.826508,534.892090 404.539703,538.078674 
	C407.210205,535.087708 408.849030,530.974121 413.763977,532.847595 
	C415.334015,529.631531 416.003876,525.478333 418.383911,523.893860 
	C426.233826,518.667969 427.144714,511.196075 426.906158,502.999146 
	C426.822540,500.126984 426.988037,497.261017 428.662109,494.849792 
	C430.228516,492.593658 430.585632,490.250244 429.848785,487.735352 
	C427.040527,478.150787 426.783386,467.942627 421.587891,458.872192 
	C419.330719,454.931580 417.989380,450.477539 413.505707,448.817017 
	C408.351196,446.908020 406.637451,443.046753 405.673492,438.222870 
	C402.989532,424.791809 398.909119,411.776764 392.865631,399.479736 
	C387.083618,387.714783 382.668884,375.496918 379.362518,362.841095 
	C379.076202,361.745361 379.464691,361.008942 379.846893,360.062622 
	C380.805237,357.689789 376.510193,347.592743 374.273895,346.575226 
	C373.100067,346.041168 371.789917,346.092285 370.959259,346.896729 
	C367.173004,350.563538 360.979218,349.654907 357.592743,354.073975 
	C356.748505,355.175629 355.273682,355.194977 353.919220,355.342010 
	C345.129303,356.296234 337.072174,360.280029 328.109375,361.094879 
	C323.071411,361.552917 317.888611,363.624207 312.510437,365.118561 
	C313.120300,361.522919 310.950470,362.394867 309.110504,362.512299 
	C302.147430,362.956909 295.535797,364.217957 288.136322,362.681732 
	C279.248901,360.836639 270.419769,358.993408 261.771912,356.243744 
	C259.949554,355.664276 257.642517,355.077118 256.554352,356.469055 
	C254.137756,359.560333 251.492569,359.512817 248.260559,358.444244 
	C246.761414,357.948639 245.270737,358.450775 244.185165,359.697205 
	C243.343796,360.663239 242.414047,361.205933 241.128845,360.648285 
	C236.350708,358.575073 231.538605,357.142975 226.262634,356.259979 
	C218.794907,355.010223 211.666458,351.643768 204.452576,349.018311 
	C202.122696,348.170410 199.862656,347.986664 198.787918,350.288330 
	C197.367172,353.330994 192.959595,355.790039 195.733246,359.862701 
	C197.233643,362.065765 196.817017,363.463257 195.433472,365.132843 
	C194.038086,366.816711 192.405579,368.583832 192.541031,370.799042 
	C192.777481,374.665558 191.198166,377.966064 189.885071,381.338623 
	C182.107010,401.315887 172.612518,420.663361 168.007874,441.799591 
	C167.241989,445.315125 165.296417,447.961609 161.630478,449.535675 
	C158.151001,451.029633 156.154800,454.084808 154.001923,457.482483 
	C149.344650,464.832489 149.796967,473.416046 146.647324,481.041351 
	C145.375320,484.120911 143.840759,488.395325 145.794861,491.206726 
	C149.026978,495.856750 148.102203,500.683258 148.332413,505.542755 
	C148.640549,512.047241 151.354233,516.844604 156.848572,520.753967 
	C159.207382,522.432312 162.572266,523.884460 163.800369,525.806274 
	C167.682281,531.880920 173.500458,535.159241 179.199707,538.676941 
	C183.109421,541.090149 187.904251,541.664246 191.232651,545.621338 
	C192.670212,547.330383 196.383469,546.261475 198.661514,544.820251 
	C200.640518,543.568237 200.443573,541.435791 199.636276,539.424683 
	C199.306732,538.603760 199.254227,537.818420 200.472336,536.718140 
M266.236603,349.070221 
	C269.655243,348.238373 273.022217,347.933655 276.599121,348.508881 
	C282.668030,349.484833 288.808838,350.337799 294.939911,350.509064 
	C300.700562,350.670013 306.276886,348.539764 312.037567,347.854462 
	C315.813568,347.405212 319.895050,347.177490 323.496490,346.158173 
	C331.338226,343.938782 339.123322,341.411743 346.474670,337.503601 
	C350.970459,335.113495 356.389221,334.547546 360.314880,330.690674 
	C364.770172,326.313416 370.675751,324.105042 375.926727,320.932617 
	C378.412018,319.431122 380.242340,317.683929 380.691925,314.972534 
	C381.202026,311.896393 378.383575,311.180603 376.349487,310.303955 
	C363.775269,304.884583 350.649811,301.295715 337.314636,298.242737 
	C329.831360,296.529510 321.919006,296.681976 314.032440,293.321960 
	C316.445312,291.273529 318.585602,290.603516 320.933960,291.046265 
	C329.101837,292.586304 337.244659,294.259003 345.401367,295.859070 
	C358.695862,298.466919 371.095947,303.958862 383.993103,307.850342 
	C386.623169,308.643921 388.443848,308.264893 390.837921,306.703278 
	C394.125366,304.559052 396.069489,301.226715 399.098389,299.006287 
	C400.309296,298.118591 401.980072,297.753815 401.616425,295.824860 
	C401.276428,294.021423 399.639191,293.687653 398.182068,293.406219 
	C391.979553,292.208252 385.852966,290.690155 379.547882,289.933014 
	C359.023895,287.468384 338.526825,284.914886 317.883392,288.705780 
	C316.728302,288.917877 315.531128,288.788422 315.172516,287.285645 
	C318.015930,284.792603 318.992432,284.253540 324.561401,283.580902 
	C343.090607,281.342804 361.400116,283.646271 379.784454,285.871704 
	C387.822662,286.844696 396.352203,292.447876 404.320496,285.216187 
	C404.710388,284.862335 405.613739,285.088867 406.274963,285.017029 
	C411.434021,284.456146 411.911804,283.536835 408.933777,279.311066 
	C406.140656,275.347687 403.881836,271.246857 403.804138,266.415283 
	C405.424438,265.311890 407.164368,266.890259 408.935883,264.686035 
	C399.695618,246.741882 395.688568,226.340317 385.906494,207.762085 
	C389.305603,206.418762 391.423950,205.407562 391.989349,202.199188 
	C393.457001,193.871002 396.039734,185.707291 397.074402,177.341507 
	C399.199493,160.159653 398.503387,143.133759 391.584900,126.844101 
	C389.950989,122.997078 387.967133,122.087196 383.900848,124.060005 
	C364.002502,133.714005 348.010040,147.919525 334.653717,165.323517 
	C333.651886,166.628967 332.855072,168.267639 330.765778,167.860031 
	C325.944489,166.919342 321.125793,165.964661 316.311554,164.988571 
	C305.792480,162.855881 295.491364,158.862228 284.438507,161.296783 
	C283.971130,161.399719 283.287933,161.436600 282.972961,161.178070 
	C279.217621,158.095947 275.714966,160.539597 272.266022,161.741669 
	C265.167847,164.215622 257.774750,165.520615 250.459335,166.908936 
	C246.003586,167.754532 241.410400,167.951370 237.784256,162.860840 
	C228.395844,149.680939 215.561157,140.060394 202.313782,131.030457 
	C200.501053,129.794830 198.567245,128.855530 197.532150,128.838593 
	C201.959274,133.727722 206.826981,138.964462 211.537857,144.338684 
	C218.497131,152.277863 223.488800,161.523178 228.622162,170.657761 
	C229.627731,172.447144 230.155899,174.652145 228.712219,176.325211 
	C227.103409,178.189636 225.368790,176.237396 223.713181,175.804733 
	C220.206451,174.888382 216.857651,172.925323 212.913345,173.812683 
	C213.686218,177.318893 219.595963,175.929733 218.528351,180.640747 
	C216.100708,181.818527 212.235138,180.854507 211.281662,183.394562 
	C209.415314,188.366425 205.078476,191.187012 202.265533,195.306351 
	C196.603821,203.597519 190.696442,205.125290 183.535461,201.513977 
	C183.504654,202.035370 183.353943,202.543015 183.477966,202.971039 
	C183.659622,203.597916 183.891144,204.340271 184.355164,204.735535 
	C189.700470,209.288635 187.751984,213.884460 184.830734,218.819458 
	C182.721878,222.382126 180.202942,226.179947 179.682770,230.113052 
	C178.276123,240.749222 173.244995,249.927841 168.963211,259.364410 
	C166.229706,265.388794 165.617874,265.111176 170.848358,268.480042 
	C171.068115,273.034210 168.084778,276.225677 166.241791,279.908783 
	C164.240051,283.909119 165.212250,285.543915 169.602463,285.420624 
	C171.240372,285.374634 172.613281,285.203674 173.254959,287.022522 
	C174.389542,290.238495 177.076401,290.079346 179.494919,289.516754 
	C188.755920,287.362518 198.166916,286.338440 207.583054,285.215912 
	C224.474213,283.202240 241.332733,281.556763 258.180511,285.498047 
	C259.414703,285.786774 261.315460,285.441681 261.079376,287.362701 
	C260.801575,289.623108 258.957306,288.657959 257.517334,288.587341 
	C248.875610,288.163391 240.211594,287.287231 231.589401,287.578796 
	C217.632004,288.050751 203.674530,289.092102 189.876419,291.440643 
	C184.969360,292.275879 180.133453,293.556854 175.296921,294.762177 
	C173.777176,295.140869 172.582108,296.208649 172.568069,297.944641 
	C172.552795,299.831909 174.131378,299.662170 175.407944,300.005310 
	C179.344131,301.063263 182.523148,302.779266 184.512039,306.898926 
	C186.034225,310.051849 189.257004,311.323425 193.005081,309.406250 
	C195.810471,307.971283 198.780884,306.856140 201.689758,305.626831 
	C216.959900,299.173767 233.135574,295.961517 249.216049,292.433960 
	C253.387405,291.518890 257.453186,292.264282 261.699921,293.429199 
	C260.227203,296.541473 258.070740,296.017578 256.149292,296.115814 
	C252.992157,296.277252 249.669968,295.859863 246.706497,296.702881 
	C233.757538,300.386627 220.405243,302.673035 207.794052,307.456329 
	C203.506973,309.082336 198.285141,309.604950 195.726379,314.029938 
	C199.954865,324.392670 211.072067,326.847351 217.421005,334.469391 
	C218.037170,335.209106 219.611435,335.634155 220.619675,335.468231 
	C223.092239,335.061371 224.828568,336.303131 226.529282,337.601624 
	C230.182312,340.390564 234.520920,341.708252 238.720657,343.205963 
	C241.144638,344.070404 244.436356,343.156036 246.431778,344.444733 
	C252.358490,348.272247 259.138947,347.742950 266.236603,349.070221 
M497.769775,529.697632 
	C489.847626,526.427368 483.954926,519.423218 475.089966,517.772339 
	C463.994019,515.705994 453.095978,512.364929 441.606720,513.214172 
	C438.608887,513.435730 435.368774,514.061401 435.454285,517.618042 
	C435.545776,521.423706 432.892609,525.898010 437.695892,529.010620 
	C443.398285,532.705872 449.762634,534.735718 456.038757,537.046692 
	C458.133270,537.817932 460.074280,538.057678 462.324890,537.352539 
	C466.869843,535.928528 469.748230,538.855042 468.618408,543.483215 
	C467.370575,548.595032 464.356934,551.992798 459.177582,553.404541 
	C451.112488,555.602844 442.770081,555.929871 434.559509,557.142029 
	C432.940033,557.381165 430.937561,556.842407 429.884186,558.338989 
	C427.067139,562.341125 422.395752,563.048462 418.544189,565.227539 
	C413.761658,567.933350 408.019623,569.616211 405.922974,575.283630 
	C406.156738,577.290588 408.652374,576.329712 408.717285,578.825317 
	C406.925171,581.478577 404.723419,584.577820 402.700348,587.789490 
	C401.326996,589.969727 400.652802,592.699768 404.011902,593.286255 
	C410.281586,594.381042 416.708862,594.017029 422.982788,595.867432 
	C426.625946,596.942017 432.030640,594.823975 434.383514,596.813904 
	C437.567749,599.506836 439.240509,597.894104 441.733948,597.196655 
	C444.090820,596.537476 446.195526,594.552307 449.013153,595.319336 
	C448.497864,597.945435 444.836365,597.325195 444.913635,600.507629 
	C449.523071,599.588867 453.036560,596.757324 456.967957,594.867065 
	C458.445312,594.156616 460.980682,592.771851 461.428986,593.237976 
	C466.223236,598.222473 468.347717,592.240784 471.571350,591.019714 
	C474.425171,589.938599 475.620209,583.982544 480.328186,588.031555 
	C480.539368,588.213196 481.904541,587.061768 482.726349,586.522278 
	C483.549438,585.982056 484.690247,584.767639 485.134277,584.985474 
	C490.118774,587.430115 491.146118,582.854919 492.949646,580.410217 
	C495.584015,576.839417 498.685883,573.656555 501.057770,569.814575 
	C502.444092,567.568970 503.757446,563.987488 508.054199,564.538025 
	C510.022827,564.790283 510.475372,562.442383 510.456177,560.783447 
	C510.435242,558.978577 510.187592,557.112366 509.661285,555.388123 
	C506.947296,546.496460 506.372223,536.629150 497.769775,529.697632 
M188.910355,196.659882 
	C190.750290,199.170685 193.632401,199.849319 195.010529,197.298782 
	C196.149048,195.191742 200.232437,192.016876 196.531067,189.658310 
	C191.881729,186.695709 194.658646,185.007843 196.633194,182.843018 
	C198.178482,181.148804 200.613617,179.709229 199.316910,176.995056 
	C197.666931,173.541443 198.821838,171.388596 201.685776,169.418579 
	C203.530823,168.149414 204.800842,166.103180 201.958954,164.828766 
	C198.416840,163.240356 198.779694,160.681290 198.830688,157.821548 
	C201.667511,157.721588 203.195068,160.243927 207.251297,159.887894 
	C195.633575,154.554092 193.897415,145.526855 194.213394,135.595169 
	C193.508545,132.057007 186.115112,131.516373 190.486938,125.695770 
	C186.967224,123.109451 184.724655,124.518867 183.026016,127.992805 
	C180.584991,132.985031 179.820419,138.403061 178.727524,143.764008 
	C176.540878,154.489822 177.076340,165.304611 177.518707,176.103806 
	C177.600494,178.100494 177.479965,181.704971 180.710617,181.144424 
	C184.203262,180.538437 183.947327,182.809036 184.207138,184.469940 
	C184.861084,188.650497 186.059479,192.559326 188.910355,196.659882 
M193.126465,557.561951 
	C187.752548,560.426270 185.052872,564.931458 185.477600,570.981323 
	C185.658951,573.564331 186.569153,576.167297 189.832535,576.547668 
	C192.511673,573.881592 191.111282,570.586304 191.966904,567.827759 
	C192.821060,565.073975 193.718384,562.159790 197.383835,562.190125 
	C198.606766,563.876526 197.569275,565.004639 197.135132,566.196167 
	C195.684601,570.177246 195.956253,574.050049 198.034607,577.719910 
	C199.662338,580.593994 202.402374,581.266602 205.362045,580.571899 
	C208.267792,579.889832 207.586258,577.284424 207.672028,575.209595 
	C207.781219,572.567322 207.290115,569.846130 208.487869,567.346191 
	C209.493607,565.246948 210.259308,562.663696 213.520813,563.260315 
	C214.269730,565.232117 213.179276,566.495422 212.813995,567.880432 
	C211.981781,571.035889 211.982620,574.166077 213.432785,577.121765 
	C214.543152,579.384888 216.221008,580.487671 218.591599,578.579834 
	C220.439850,577.092468 223.206848,566.928223 222.446960,564.580444 
	C219.829880,556.494751 212.533401,552.194519 204.094620,553.697937 
	C200.467773,554.344055 196.985214,555.347412 193.126465,557.561951 
M368.567047,577.608826 
	C370.035553,580.155212 372.167267,580.889282 374.915924,579.928101 
	C377.875458,578.893311 379.458374,576.877625 379.879181,573.701111 
	C380.414429,569.660828 378.175568,566.149719 377.601074,562.197021 
	C381.951294,562.948120 384.594574,566.337036 384.893250,570.977905 
	C384.998260,572.609314 383.554565,575.271667 386.346558,575.430908 
	C389.167419,575.591919 390.043518,572.942444 390.232147,570.509277 
	C390.683807,564.682190 387.512115,559.429321 381.965546,556.825317 
	C378.950317,555.409668 375.783142,554.468811 372.438629,553.997742 
	C366.974457,553.228149 362.009369,553.151550 358.074310,558.172241 
	C353.478607,564.035950 353.578491,570.044495 356.410248,576.411499 
	C357.178009,578.137695 358.305237,579.777222 360.554474,579.167053 
	C362.519623,578.633972 363.443970,577.038330 363.628113,575.041870 
	C363.845673,572.683350 363.409241,570.440247 362.706055,568.174500 
	C362.195160,566.528198 360.690155,565.022949 361.597351,562.986023 
	C364.491241,561.881104 365.759399,563.814880 367.232056,565.721008 
	C369.952423,569.242188 367.955963,573.160217 368.567047,577.608826 
M219.087540,587.451599 
	C215.071320,585.923462 211.840073,588.709534 208.209656,589.589172 
	C210.645340,589.954163 213.087769,590.146240 215.480225,589.883362 
	C216.953690,589.721375 219.383148,590.909973 219.087540,587.451599 
z"/>
<path fill="#000000" opacity="1.000000" stroke="none" 
	d="
M509.071472,88.280426 
	C503.069031,87.194405 501.750183,84.431061 504.634521,79.024986 
	C509.590057,69.736900 516.179688,61.538639 522.380066,53.085632 
	C525.409180,48.956051 528.399292,44.797836 532.046387,39.771461 
	C523.470581,40.468735 516.174377,42.254227 508.884827,44.052341 
	C506.455475,44.651581 504.049194,45.309597 501.513672,45.192616 
	C499.899597,45.118145 498.536774,44.608253 498.025146,42.919415 
	C497.501831,41.192020 498.371918,39.694744 499.791473,39.206516 
	C512.710083,34.763447 525.818237,30.892870 539.615967,30.985685 
	C543.962585,31.014927 545.021118,35.680332 541.902771,40.257660 
	C535.908752,49.056114 530.034180,57.938957 523.432922,66.315666 
	C520.786438,69.673965 517.948669,72.977310 516.133728,77.753975 
	C524.416199,76.167946 532.139893,74.605659 539.899658,73.249680 
	C542.497681,72.795692 545.189758,72.716133 547.835022,72.751060 
	C549.744812,72.776276 551.601074,73.622353 551.959412,75.711304 
	C552.387512,78.206558 550.466553,79.377556 548.471375,79.838486 
	C543.781006,80.922066 539.010620,81.655128 534.305542,82.680855 
	C526.023987,84.486244 517.766968,86.404320 509.071472,88.280426 
z"/>
<path fill="#000000" opacity="1.000000" stroke="none" 
	d="
M468.348022,67.198608 
	C472.642670,66.274475 476.525177,65.378281 480.449188,64.735115 
	C482.633331,64.377121 484.802216,64.705238 486.269257,66.722458 
	C487.884399,68.943413 486.671906,70.884804 485.485901,72.682770 
	C481.918121,78.091438 478.214172,83.410202 474.638763,88.813919 
	C473.482178,90.561905 471.797668,92.094444 471.791779,94.395622 
	C473.240204,96.414772 474.853790,95.054413 476.354919,94.750954 
	C480.738159,93.864845 485.029358,92.344955 489.601562,92.794006 
	C491.486420,92.979126 493.444641,93.472977 493.788757,95.630562 
	C494.141357,97.841423 492.394073,99.046471 490.589569,99.479515 
	C482.046570,101.529663 473.525909,103.796516 464.870514,105.210182 
	C459.270386,106.124847 457.283844,102.836563 459.624512,97.547592 
	C462.754395,90.475235 468.288116,84.983078 472.374542,78.535355 
	C473.302032,77.071922 474.965149,75.888489 474.528931,73.339546 
	C469.153931,74.414436 463.858093,75.520439 458.541199,76.513481 
	C456.438629,76.906174 453.881531,77.542900 453.127136,74.653999 
	C452.377716,71.784348 454.845947,71.014656 456.922791,70.388206 
	C460.574615,69.286697 464.273834,68.342407 468.348022,67.198608 
z"/>
<path fill="#000000" opacity="1.000000" stroke="none" 
	d="
M435.915375,96.718491 
	C437.632568,96.428207 438.946625,96.053101 440.258087,96.062050 
	C444.544373,96.091331 446.263123,98.626343 444.671875,102.699776 
	C442.904114,107.224968 439.944122,111.088608 437.417938,115.193596 
	C436.155426,117.245140 434.454926,119.184471 434.512634,121.952034 
	C437.987152,123.662651 440.842926,121.463615 443.847839,121.156067 
	C446.917755,120.841866 451.221863,119.230766 452.306732,122.773407 
	C453.626831,127.084213 448.563873,127.003036 445.943207,127.969414 
	C440.815369,129.860367 435.488007,131.224442 430.211426,132.692291 
	C427.469910,133.454941 424.409210,134.278748 422.373199,131.550415 
	C420.531921,129.083008 421.768860,126.382774 423.152252,124.067650 
	C425.795654,119.643799 428.636719,115.338562 431.345154,110.952843 
	C432.350800,109.324440 433.797272,107.852684 433.868896,105.421448 
	C429.497864,105.128113 425.843323,106.970589 421.999390,107.706154 
	C419.995880,108.089539 417.764069,108.775597 416.872162,106.266716 
	C416.004364,103.825722 418.014771,102.727592 419.858978,101.806282 
	C424.816162,99.329842 430.271301,98.405594 435.915375,96.718491 
z"/>
<path fill="#000000" opacity="1.000000" stroke="none" 
	d="
M275.873566,408.761292 
	C275.837921,414.035309 277.783936,418.662811 278.824249,424.378723 
	C275.347626,422.749390 274.648132,420.351593 273.446625,418.548157 
	C272.396484,416.971924 271.911224,415.765533 269.453979,415.835724 
	C265.877258,415.937866 266.326691,412.291687 266.011688,410.157379 
	C265.520020,406.825836 265.141205,404.035950 261.183044,403.092285 
	C259.213654,402.622803 258.009796,400.678955 258.840454,398.766571 
	C261.383789,392.911285 264.278748,387.217712 270.627991,382.590546 
	C270.568970,388.699860 264.172119,390.590515 264.865356,395.885162 
	C267.256226,396.586151 268.782898,393.361267 271.524628,394.369812 
	C272.332703,398.671326 268.658966,402.578918 269.578674,406.903015 
	C271.816925,408.180542 272.486969,405.343262 274.592377,405.651581 
	C275.655640,405.961151 275.267303,407.421967 275.873566,408.761292 
z"/>
<path fill="#000000" opacity="1.000000" stroke="none" 
	d="
M185.444824,460.668579 
	C186.499603,462.906281 187.980820,464.608643 187.653549,468.544617 
	C179.831009,462.242950 174.554840,454.023926 164.425522,451.298096 
	C171.649780,447.914520 179.781952,451.908112 185.444824,460.668579 
z"/>
<path fill="#000000" opacity="1.000000" stroke="none" 
	d="
M391.886047,462.923767 
	C390.339874,464.326569 389.857788,466.324982 387.941223,467.028046 
	C386.178589,458.004272 397.802185,448.065948 407.585693,451.043518 
	C401.878540,454.828552 396.337616,457.932068 391.886047,462.923767 
z"/>
<path fill="#000000" opacity="1.000000" stroke="none" 
	d="
M255.265076,559.232788 
	C259.003693,560.511292 262.638550,561.050659 265.068481,564.462891 
	C257.611572,563.780518 250.346802,561.980774 242.876389,561.305420 
	C246.517685,557.857178 250.721710,558.699646 255.265076,559.232788 
z"/>
<path fill="#000000" opacity="1.000000" stroke="none" 
	d="
M314.606110,564.428345 
	C313.274292,564.829895 312.309235,565.161865 311.439148,564.310669 
	C315.083344,558.841248 325.585815,556.920532 333.647247,561.287354 
	C326.736420,562.984497 320.512878,562.095459 314.606110,564.428345 
z"/>
<path fill="#000000" opacity="1.000000" stroke="none" 
	d="
M368.334351,138.317535 
	C372.909882,134.791199 375.719574,129.560364 381.484650,128.126480 
	C382.596893,127.849854 383.643829,127.167442 385.129944,128.148010 
	C383.840271,131.154617 381.078491,133.049789 379.290375,135.375153 
	C378.855042,136.956879 380.603424,136.896133 380.813751,138.352921 
	C379.980469,139.907700 376.903595,140.832230 378.776184,144.173187 
	C379.956390,146.278885 377.015747,147.365067 375.324921,148.220490 
	C372.013794,149.895615 369.170898,151.974731 366.969910,155.961304 
	C371.783936,155.336685 373.893463,151.160446 379.204315,149.613190 
	C376.642181,153.665329 375.674744,157.066528 372.974884,159.547943 
	C371.998138,160.445679 370.806213,161.110718 369.838654,162.016708 
	C366.791962,164.869461 367.252716,167.120285 371.369720,168.426117 
	C375.140137,169.621994 377.258636,171.798203 377.300293,175.613998 
	C376.043854,177.357971 373.589020,175.303070 372.731506,177.926682 
	C375.405731,180.440384 380.209473,180.577423 381.762695,184.702911 
	C377.095459,188.867844 377.179443,189.564209 383.852448,199.645844 
	C388.131561,193.453201 389.252808,186.408279 391.827454,178.591324 
	C394.092102,183.248672 392.204834,186.615494 391.548645,189.823181 
	C390.921967,192.886505 389.497742,195.795502 388.339966,198.739243 
	C386.749878,202.781998 382.611542,204.270950 379.769531,201.020096 
	C376.427521,197.197372 370.796509,195.380951 369.678772,189.359253 
	C369.410217,187.912491 366.340820,186.985611 364.585632,185.836731 
	C363.839813,183.806854 366.843597,184.062866 366.694702,182.387451 
	C364.888794,180.696915 362.511780,181.364670 360.502655,180.700348 
	C359.169189,180.259415 357.164368,180.816681 356.785919,178.853241 
	C356.364380,176.666092 358.393768,176.272430 359.780426,175.445892 
	C360.604614,174.954605 361.707855,174.741196 361.980652,173.494110 
	C361.340515,171.007446 359.546722,171.804352 358.026245,172.312408 
	C355.346130,173.207993 352.725616,174.280869 350.072418,175.258530 
	C346.834412,176.451660 345.439880,174.819153 345.937500,171.911774 
	C346.377960,169.338394 347.248749,166.638275 348.657166,164.465851 
	C354.536469,155.397308 360.027710,146.007462 368.334351,138.317535 
z"/>
<path fill="#000000" opacity="1.000000" stroke="none" 
	d="
M279.582642,286.373108 
	C277.631042,284.573181 275.739929,283.198395 274.181519,281.515503 
	C270.600494,277.648346 271.728546,273.046509 276.778351,272.038940 
	C283.471222,270.703491 290.331909,271.136322 297.101074,271.636230 
	C300.086487,271.856689 302.451630,273.767334 302.915680,276.979431 
	C303.368561,280.114410 301.214874,281.650757 298.776794,283.130798 
	C294.524536,285.712128 291.185364,289.218445 291.345551,294.577576 
	C291.495911,299.607330 295.168335,302.084106 299.310455,303.877594 
	C304.370361,306.068481 308.710541,304.211700 312.773529,301.220734 
	C313.296234,300.835938 313.690826,300.253052 314.079315,299.714691 
	C315.003937,298.433441 316.076172,297.138336 317.745026,298.223358 
	C319.613892,299.438416 318.703979,301.148285 318.004608,302.670654 
	C315.310211,308.535736 308.431976,311.611511 300.740936,310.072113 
	C297.179047,309.359131 293.559326,308.418732 291.010651,305.418060 
	C288.942688,302.983368 286.826050,303.083862 284.631805,305.274323 
	C278.337189,311.557983 271.059418,312.314453 263.070129,309.091858 
	C258.674591,307.318848 256.914612,303.960999 257.738556,298.763214 
	C260.062836,297.922791 260.912354,299.992432 262.212921,301.096039 
	C268.402435,306.348114 275.644287,306.448975 280.956238,301.318787 
	C285.897888,296.546204 285.613373,292.956696 279.582642,286.373108 
M292.206787,279.083862 
	C290.817719,275.628632 287.832428,275.079529 282.822357,277.405396 
	C283.000977,280.877380 284.789001,283.619202 287.998444,284.373688 
	C291.136566,285.111328 291.067108,281.719086 292.206787,279.083862 
z"/>
<path fill="#000000" opacity="1.000000" stroke="none" 
	d="
M242.785995,270.314270 
	C225.496384,270.640869 216.634323,258.749512 214.996185,243.778778 
	C214.802444,242.008240 215.292145,240.149429 215.559250,238.345490 
	C215.866867,236.267761 217.119293,235.027420 219.232498,234.945969 
	C221.661072,234.852386 222.024063,236.602798 222.473083,238.538483 
	C223.298798,242.098053 224.319702,245.623322 225.462051,249.096176 
	C227.829910,256.294708 234.002045,260.893707 241.099625,260.923676 
	C247.450851,260.950470 253.144012,256.316345 255.344772,249.021393 
	C256.348969,245.692719 256.973389,242.242889 257.649689,238.824188 
	C258.095917,236.568451 258.604248,234.398666 261.512207,234.605392 
	C264.194275,234.796051 265.151154,236.792267 265.250641,239.127121 
	C265.856445,253.342911 260.387299,267.702423 242.785995,270.314270 
z"/>
<path fill="#000000" opacity="1.000000" stroke="none" 
	d="
M320.821320,265.274017 
	C312.643341,258.540405 310.371246,249.788681 310.751556,240.059357 
	C310.844635,237.678391 311.442810,235.097260 314.458008,234.984451 
	C317.696320,234.863327 317.866547,237.709778 318.178314,239.953629 
	C318.708771,243.771469 319.643158,247.435791 321.106720,251.007156 
	C323.740723,257.434540 328.540466,260.693085 335.382874,260.695343 
	C342.542389,260.697662 347.349304,256.834076 349.842712,250.395691 
	C351.268066,246.715103 351.863525,242.704697 352.732941,238.820450 
	C353.238037,236.563644 353.913208,234.511505 356.705811,234.543503 
	C359.609650,234.576752 359.957336,236.845642 360.390594,239.035812 
	C362.076080,247.556061 356.746246,260.624023 349.538757,265.555267 
	C340.427887,271.788757 330.695251,271.759613 320.821320,265.274017 
z"/>
<path fill="#000000" opacity="1.000000" stroke="none" 
	d="
M234.982956,206.797302 
	C232.823563,208.131683 230.988815,209.260117 229.203552,210.462051 
	C227.470322,211.628906 225.573868,212.760208 223.865677,210.867157 
	C222.250229,209.076843 223.238983,207.020157 224.479828,205.423569 
	C227.293121,201.803757 230.995529,199.233582 235.295776,197.773041 
	C237.930328,196.878235 240.769852,196.441452 243.553452,196.171631 
	C246.363739,195.899231 249.680496,195.729065 250.164200,199.585968 
	C250.705444,203.901779 247.419388,204.838577 244.074600,205.030228 
	C241.070633,205.202393 238.120514,205.402008 234.982956,206.797302 
z"/>
<path fill="#000000" opacity="1.000000" stroke="none" 
	d="
M348.045227,202.951538 
	C348.882904,203.793365 349.529449,204.363022 349.938507,205.070068 
	C351.003235,206.910461 352.672272,209.022583 350.696106,210.906921 
	C348.949707,212.572144 346.879120,211.119537 345.235321,210.028259 
	C340.307861,206.756989 335.135956,204.320023 329.088409,203.940063 
	C326.673553,203.788345 324.315216,202.750015 324.359009,199.775314 
	C324.407440,196.481720 327.042542,195.931747 329.617828,195.612579 
	C336.942352,194.704788 342.222778,199.042084 348.045227,202.951538 
z"/>
<path fill="#000000" opacity="1.000000" stroke="none" 
	d="
M273.335693,326.919281 
	C272.197205,325.694519 271.308929,324.693878 271.987366,323.057404 
	C274.058533,322.265869 275.765930,323.609558 277.438843,324.393585 
	C283.519958,327.243500 289.628174,328.353973 296.118103,325.793823 
	C297.493164,325.251404 299.547699,324.033813 300.340485,326.389954 
	C300.977600,328.283386 299.179932,329.358612 297.737000,330.104065 
	C289.039948,334.597382 281.110352,332.472870 273.335693,326.919281 
z"/>
</svg>