<svg version="1.1" id="Layer_1" xmlns="http://www.w3.org/2000/svg" xmlns:xlink="http://www.w3.org/1999/xlink" x="0px" y="0px"
	 width="100%" viewBox="0 0 672 640" enable-background="new 0 0 672 640" xml:space="preserve">
<path fill="#000000" opacity="1.000000" stroke="none" 
	d="
M206.721008,102.055496 
	C207.686615,96.504105 209.703629,91.749168 211.824600,87.042755 
	C214.554520,80.985069 218.896210,78.801056 225.193878,80.909225 
	C239.158417,85.583923 251.365204,93.329277 261.595673,103.839569 
	C267.002563,109.394341 274.051666,112.616531 279.570190,117.795380 
	C290.684845,128.225906 300.588806,118.915482 310.793915,116.141403 
	C313.712952,115.347923 316.484863,113.473381 319.456146,112.381180 
	C321.081329,111.783775 323.100281,111.264267 324.264618,112.374588 
	C327.790192,115.736580 331.790771,114.795235 335.894653,114.501442 
	C339.230225,114.262634 342.121338,114.731667 344.468475,118.157921 
	C347.445374,122.503448 358.368713,122.254616 362.890930,119.610588 
	C377.240723,111.220589 387.323242,97.586494 401.438507,88.938660 
	C407.305664,85.344101 413.250092,82.130791 419.931549,80.420052 
	C426.636200,78.703362 430.109772,80.497513 433.134308,86.831551 
	C437.210388,95.367760 439.484100,104.407036 439.982605,113.761803 
	C440.915070,131.259995 441.246002,148.949951 436.099701,165.801590 
	C433.494995,174.330536 433.698975,181.080383 438.169678,188.625320 
	C440.819733,193.097610 441.744904,198.607224 443.347260,203.681488 
	C445.731415,211.231522 449.609253,217.616028 456.804474,221.521576 
	C461.994293,224.338623 462.424713,228.602921 457.919769,232.491028 
	C452.366394,237.283997 452.297607,237.342987 456.834473,242.629471 
	C458.988403,245.139267 458.218689,246.992355 456.302185,249.140869 
	C452.933380,252.917450 453.223022,254.014938 458.099792,255.303101 
	C466.336304,257.478699 474.221710,260.615570 482.152039,263.647369 
	C483.231110,264.059906 484.399231,264.289001 485.064178,265.501892 
	C484.034729,267.487213 482.541077,266.358154 481.243866,265.987762 
	C472.126068,263.384094 462.987732,260.844757 453.923370,258.064972 
	C449.845795,256.814484 447.866547,258.213593 447.291718,262.203735 
	C446.935669,264.674927 446.775909,267.189148 446.219360,269.613159 
	C445.471161,272.871918 444.176636,275.560120 440.076782,272.986145 
	C438.893250,272.243103 437.459778,271.705048 436.661865,273.351044 
	C435.829285,275.068573 437.056580,276.135040 438.409424,276.971649 
	C443.934326,280.388153 449.506653,283.730530 454.974243,287.236267 
	C458.700531,289.625458 462.589233,291.880127 465.464294,295.898407 
	C463.313629,297.086060 462.183868,295.643921 460.889130,294.886719 
	C453.559509,290.600403 446.176208,286.403320 438.909546,282.012970 
	C435.039825,279.674957 432.113403,280.207001 429.572937,283.974670 
	C427.219208,287.465363 423.884735,290.049194 420.717804,292.744049 
	C418.050110,295.014130 417.857971,297.470123 419.713654,300.217346 
	C421.390381,302.699493 422.969116,305.293762 424.960541,307.505981 
	C427.595398,310.432983 429.533875,313.136597 426.996368,317.188385 
	C425.863861,318.996735 427.598419,320.645782 428.445129,322.201691 
	C430.914612,326.739655 433.271301,331.236786 432.697083,336.725189 
	C432.556854,338.065582 433.488556,339.561218 434.072998,340.922974 
	C434.731964,342.458252 436.077545,344.227936 435.390198,345.614624 
	C432.876251,350.686523 435.418152,354.826508 437.719391,358.729095 
	C444.510071,370.245270 447.587036,382.939056 450.094055,395.825684 
	C451.065582,400.819397 452.870392,404.630554 457.774384,407.225281 
	C461.656128,409.279144 464.950470,412.640961 468.095764,415.826660 
	C470.643402,418.406982 472.906921,421.443359 471.664856,425.623505 
	C471.248199,427.025757 472.339691,428.110443 472.857422,429.320526 
	C475.769073,436.125580 479.309052,442.475952 476.490234,450.705780 
	C474.915009,455.304749 476.167419,460.932007 476.439850,466.080322 
	C476.588837,468.895874 478.522034,469.912415 481.334869,469.778564 
	C486.983002,469.509735 492.643036,469.500397 498.294281,469.283630 
	C505.320984,469.014130 511.592133,471.285553 517.890747,474.184296 
	C523.749573,476.880615 530.358765,477.703827 536.135559,480.825165 
	C540.081970,482.957520 544.073669,484.613159 545.194885,489.904358 
	C545.639038,492.000031 548.439026,493.548981 550.036560,495.455658 
	C557.919739,504.864532 561.161499,515.760132 560.289368,527.941406 
	C560.091675,530.701782 560.090576,533.360229 563.277710,534.254700 
	C563.371521,536.687195 560.720154,535.923950 560.188049,537.821106 
	C562.335022,540.178772 566.133667,535.779663 568.068481,539.596069 
	C566.052856,542.631470 561.379639,538.130676 559.470276,542.544556 
	C562.744446,543.518250 566.152161,540.699341 569.287537,543.513062 
	C566.691833,545.085938 564.035522,546.013489 560.857178,546.237854 
	C562.412598,547.837219 564.910950,546.724792 566.183716,548.801575 
	C562.754761,552.016724 557.176392,548.418701 553.800537,552.564453 
	C557.311462,555.398315 561.417664,551.423767 565.064697,553.809326 
	C563.066467,556.591675 559.972046,554.690430 558.017395,556.565186 
	C558.726135,556.986877 559.575867,557.492432 560.853577,558.252747 
	C557.933044,560.625000 554.375061,560.175781 551.378906,561.435425 
	C552.396057,563.761841 555.116028,561.702698 556.278625,564.018066 
	C551.511353,567.408325 544.954895,563.133179 540.507080,567.376526 
	C540.856140,569.124268 542.964294,568.167175 543.819397,569.838318 
	C537.036072,571.039246 530.356628,571.185486 523.682800,571.933472 
	C526.790344,573.919861 530.725159,572.016602 533.758362,574.618408 
	C523.228638,575.197449 512.939209,577.578735 501.936737,577.256958 
	C505.032440,578.442566 508.271301,576.741821 511.895325,580.054932 
	C488.615875,580.873596 466.643158,582.048462 444.136017,580.572937 
	C445.469971,577.959656 447.491394,579.270325 448.762939,577.817383 
	C441.637085,574.884277 433.951111,578.739685 426.587128,575.959229 
	C428.806549,572.865662 431.933411,574.675903 434.529297,573.293457 
	C431.823944,571.399780 428.334015,574.357178 426.041656,571.439636 
	C427.914856,569.173584 430.225891,570.509094 432.378265,570.623108 
	C434.425293,570.731445 436.747070,570.589294 437.442657,568.380554 
	C438.123383,566.218994 436.221375,565.138489 434.418213,564.498047 
	C431.593872,563.495117 430.819977,561.282410 430.696747,558.608276 
	C430.620789,556.959839 429.992767,555.638306 428.222870,555.327087 
	C426.529816,555.029297 424.950989,554.906311 424.366180,557.254761 
	C423.838776,559.372620 421.788300,559.096313 420.200500,559.148071 
	C415.207123,559.310974 410.204987,559.239258 405.214874,559.456543 
	C402.328400,559.582214 398.681946,558.030762 397.358917,562.555298 
	C397.215668,563.045227 395.597260,563.348877 394.672241,563.328186 
	C382.057343,563.046875 369.488983,564.905701 356.837982,563.915466 
	C352.298279,563.560120 347.484558,563.628418 343.387177,566.529236 
	C341.783417,567.664673 339.865143,567.390076 338.050995,567.391602 
	C327.051941,567.400574 316.052765,567.395874 305.053864,567.343506 
	C302.276825,567.330261 299.442108,567.706970 297.284241,565.036316 
	C296.118439,563.593445 294.164917,564.580505 292.533020,564.587524 
	C280.267883,564.640259 268.002441,564.616272 255.659821,563.927490 
	C258.091125,561.081299 261.607513,562.580139 264.405426,561.210815 
	C254.063187,559.155884 243.576981,562.525208 233.227005,560.054138 
	C241.419327,557.875122 249.981094,559.145813 259.409515,557.118286 
	C245.534164,554.764709 232.613693,556.598083 219.819901,555.367493 
	C223.393906,552.238953 227.932404,554.731201 231.696930,552.438110 
	C221.487305,550.066223 210.831543,552.750000 200.675812,549.572571 
	C207.623138,547.931946 214.788727,549.314514 222.283173,548.360901 
	C221.250336,545.443115 219.166092,545.394897 217.053757,545.458679 
	C208.399353,545.720093 199.746674,546.058960 191.090591,546.225098 
	C189.283615,546.259827 187.019745,546.982239 185.764359,544.345520 
	C187.725967,542.531555 190.316132,544.325928 193.109848,542.814148 
	C184.325760,541.830200 176.128281,543.237732 168.232697,540.881042 
	C181.968307,538.798950 195.766556,538.985474 209.569534,538.628296 
	C194.180023,537.887085 178.731766,538.358765 163.751892,536.167358 
	C162.374054,534.747131 164.442627,534.323669 163.974136,533.139954 
	C161.128448,532.771057 158.192795,532.390503 154.886475,531.961914 
	C155.412750,531.369568 155.681183,530.801575 155.952805,530.799988 
	C166.932739,530.737610 176.915207,525.769653 187.620209,524.382202 
	C187.947418,524.339844 188.432480,524.316833 188.560257,524.109802 
	C191.819641,518.828918 196.764587,519.565613 201.676666,521.017029 
	C202.493530,517.846863 200.260010,516.906799 199.000397,515.643066 
	C189.589127,506.200531 182.888397,495.630432 178.562180,482.562500 
	C175.444794,473.145935 174.716797,464.317505 174.965866,454.913971 
	C174.996658,453.751831 175.294250,452.383789 174.809769,451.454376 
	C170.578171,443.337036 174.628143,436.345123 177.664566,429.215515 
	C178.190826,427.979828 179.018951,426.777313 178.415619,425.434570 
	C177.330902,423.020477 178.642822,421.250488 179.822693,419.445343 
	C183.267715,414.174713 187.962372,410.106018 193.281586,406.977997 
	C196.688843,404.974335 198.063416,402.404541 198.834396,398.740997 
	C200.982010,388.535858 202.276764,378.079102 206.680908,368.469604 
	C208.202942,365.148682 210.180588,362.039581 211.813675,358.765686 
	C213.871948,354.639374 213.909988,350.215057 214.499191,345.734131 
	C215.548035,337.757233 216.139328,329.136108 220.709946,321.852020 
	C221.581909,320.462402 223.104431,318.729553 221.982635,317.308319 
	C218.503220,312.900146 221.905548,310.378052 224.222504,307.486908 
	C224.951065,306.577820 225.807999,305.769623 226.514084,304.844910 
	C231.016800,298.947876 230.661179,296.416138 224.458221,292.269531 
	C220.802841,289.825897 217.670441,286.863708 215.032288,283.413696 
	C212.672134,280.327301 210.214722,279.857544 206.895935,281.943542 
	C198.723740,287.080139 190.465240,292.080627 182.195297,297.059235 
	C180.893250,297.843079 179.717590,299.429138 177.049103,298.162506 
	C185.870621,288.490601 198.283752,284.110992 209.234482,274.742035 
	C198.825272,275.055176 199.087021,268.705963 198.859848,262.900421 
	C198.681458,258.341736 196.629379,257.144135 192.389023,258.215637 
	C183.647079,260.424622 175.249023,263.612762 166.831726,266.770111 
	C163.804535,267.905609 160.907242,269.651031 155.928467,269.192139 
	C168.071945,260.822449 181.313263,258.232178 193.605499,253.312775 
	C192.934280,252.015152 192.789993,251.510284 192.473404,251.162048 
	C190.832443,249.357010 187.784607,248.753387 187.413437,245.926071 
	C187.030975,243.012863 190.296371,242.596954 191.556885,240.736130 
	C193.146240,238.389816 193.232635,236.464172 190.625793,234.844254 
	C189.495102,234.141632 188.330902,233.455185 187.327835,232.591873 
	C183.986847,229.716415 183.755188,226.431503 187.419662,223.968185 
	C194.180588,219.423401 198.908112,213.426956 201.773178,205.949768 
	C203.730011,200.842911 203.791214,195.140778 206.500000,190.232162 
	C207.463562,188.486069 207.963486,186.343613 209.282318,184.961624 
	C212.638123,181.445099 212.519379,177.770950 211.127274,173.477249 
	C203.746826,150.713608 202.868073,127.488358 206.569763,103.978867 
	C206.647400,103.485817 206.650238,102.981003 206.721008,102.055496 
M230.657547,410.593994 
	C232.508194,405.714172 229.934372,399.285126 236.259750,394.860748 
	C236.671967,401.200012 232.632034,407.341949 238.354050,411.956848 
	C239.317398,426.594788 245.132660,440.035583 248.933960,453.956299 
	C251.204361,462.270630 254.335907,470.431732 257.893585,478.293732 
	C263.395203,490.451691 268.232880,502.860809 272.592102,515.434143 
	C274.990051,522.350586 275.483948,528.959717 267.871094,534.415833 
	C261.335266,539.100037 263.113373,549.697998 270.169189,553.120361 
	C271.938629,551.264771 271.656982,548.869019 271.720123,546.606140 
	C271.801941,543.678101 272.447113,541.007507 274.572418,538.836853 
	C275.564758,537.823364 276.620331,536.952698 278.043243,537.850708 
	C279.289703,538.637268 278.901428,539.814941 278.513947,540.976807 
	C277.829773,543.028503 276.997467,545.071228 276.650818,547.187073 
	C275.795502,552.407654 279.371552,557.120605 284.292816,557.559082 
	C288.719849,557.953552 289.517670,556.691284 289.670502,549.418335 
	C289.754608,545.415100 290.454590,541.631653 294.027069,538.872620 
	C296.911194,541.380371 295.028229,543.750061 294.563660,545.998718 
	C292.973419,553.696655 297.612823,558.051270 305.074066,555.890686 
	C308.079315,555.020386 310.485596,553.379578 312.399689,550.953125 
	C316.580902,545.652527 318.695038,539.474915 318.506165,532.875977 
	C317.872589,510.739197 315.149597,488.749084 313.245911,466.703430 
	C312.920044,462.929962 314.419678,459.038605 312.455231,455.377411 
	C308.167511,447.386353 303.777588,439.455963 298.293213,432.204926 
	C297.166718,430.715546 296.589752,429.015686 295.736633,427.442719 
	C292.900330,422.213226 289.721649,416.873138 284.764374,413.619263 
	C279.889130,410.419159 276.105438,405.824677 270.725891,403.293213 
	C269.515167,402.723450 268.749695,400.604462 268.341003,399.050873 
	C267.286621,395.042755 266.118958,390.983368 265.817657,386.884094 
	C265.581604,383.672668 264.387543,379.940918 268.111877,376.366791 
	C268.577545,383.512207 268.088684,390.160553 271.504974,396.269409 
	C275.026825,393.596069 272.237427,389.113647 275.745636,386.874023 
	C277.750275,391.655487 277.786896,397.120056 281.327423,401.131073 
	C282.861847,401.935577 283.313324,399.375092 284.657410,400.166382 
	C289.852875,402.017090 285.518250,413.888367 295.827423,410.327637 
	C298.938202,414.160675 301.054535,418.775116 304.943146,421.954773 
	C306.170197,421.204437 306.134644,419.534698 307.599701,419.505676 
	C311.218628,421.952576 310.187347,429.493378 317.201599,427.942993 
	C318.388580,432.024780 319.395233,435.933594 323.284363,437.996704 
	C324.674530,437.148865 325.116699,435.843933 325.554138,434.616302 
	C326.761475,431.227844 331.494446,428.524597 332.468842,428.571075 
	C337.807373,428.825714 338.121277,424.722443 339.925293,421.856323 
	C341.101929,419.986877 341.523865,417.528473 344.150787,416.299500 
	C345.574615,420.006470 341.141113,422.812103 343.217773,426.762573 
	C346.415741,423.893372 348.316223,420.614471 350.262878,417.406189 
	C352.210724,414.196014 353.989258,410.883087 355.787109,407.712036 
	C357.945221,407.924835 357.217072,410.525116 359.121887,410.797150 
	C364.385040,407.024750 362.445160,399.671600 366.283875,395.013000 
	C368.109711,396.531982 366.577362,399.453064 369.757111,400.348114 
	C372.663696,395.121735 371.720825,388.951935 373.112152,383.532562 
	C375.461700,383.056915 375.979889,386.344269 378.398285,385.264221 
	C381.583954,381.038574 380.060883,375.647552 381.039246,370.334412 
	C384.614105,376.289001 383.916290,392.126678 379.042847,395.646057 
	C374.422729,398.982391 373.726929,403.808075 371.368988,408.019135 
	C370.664429,409.277405 370.268250,411.616699 368.655609,411.094971 
	C365.166534,409.966156 364.837555,412.780609 363.533997,414.434357 
	C357.206268,422.462189 353.643341,432.131348 347.997925,440.580261 
	C340.633270,451.602203 336.898712,463.975830 336.508606,477.100952 
	C336.186646,487.932922 335.169739,498.685608 334.363434,509.466827 
	C333.667938,518.766541 332.651642,528.058716 333.944214,537.385254 
	C335.016083,545.119385 338.503265,551.248108 345.727966,554.808044 
	C348.581757,556.214233 351.598236,557.906677 354.549316,555.274414 
	C357.569366,552.580505 358.300049,549.185913 356.939789,545.268799 
	C356.178131,543.075500 354.805786,540.822754 355.924561,538.497681 
	C357.296478,538.159058 357.920898,538.734314 358.574310,539.243225 
	C362.733734,542.482727 362.396210,547.007751 362.256989,551.573486 
	C362.095490,556.871033 364.454468,558.525269 369.462402,556.899658 
	C374.365570,555.308044 376.546234,550.729797 375.172577,545.259216 
	C374.552002,542.787903 372.732666,540.558594 373.283051,537.792175 
	C376.040283,536.696167 377.228516,538.358643 378.243439,540.109924 
	C379.682953,542.593811 380.568146,545.239258 380.347504,548.201721 
	C380.251434,549.491211 380.163147,551.045044 381.826782,551.534363 
	C383.349976,551.982361 384.295532,550.874512 385.186310,549.863831 
	C388.511108,546.091431 388.606628,540.621887 385.035400,536.083435 
	C383.097137,533.620361 380.650848,531.541626 378.335114,529.395874 
	C376.567627,527.758179 376.068512,526.003418 376.570587,523.585632 
	C378.539032,514.106018 381.122589,504.780975 384.999573,495.943024 
	C393.645111,476.234528 400.357544,455.872833 406.489288,435.287079 
	C408.139130,429.748016 411.657959,424.226379 411.458801,418.801758 
	C411.156921,410.580505 417.522858,403.384888 414.284882,395.046082 
	C414.267578,395.001434 414.792816,394.746094 415.116486,394.559265 
	C416.915588,395.306244 417.056976,397.091248 417.540680,398.605804 
	C421.693970,411.610352 419.508972,423.932739 414.158905,436.200653 
	C411.631470,441.996063 407.358215,448.160187 412.707947,454.841919 
	C413.064056,455.286682 412.581543,456.417511 412.462708,457.225372 
	C412.000977,460.365021 408.148041,463.642975 412.873199,466.633423 
	C413.106873,466.781281 412.493958,468.140686 412.401245,468.950348 
	C411.643951,475.564423 407.387238,480.452148 404.142487,485.843414 
	C403.942322,486.176025 404.053375,486.695953 404.023163,487.083435 
	C405.604858,487.582642 406.343170,485.423340 407.824066,486.233917 
	C407.615295,498.881317 406.055969,497.786499 421.320679,503.872620 
	C425.612305,505.583710 429.089539,503.356720 432.879822,502.329865 
	C436.014618,501.480591 439.043732,499.057739 442.337952,501.327179 
	C443.913910,500.029388 443.839722,497.250061 446.081116,496.892639 
	C447.797150,497.453156 446.433990,499.513641 448.235626,499.678101 
	C451.191437,496.609619 452.578796,492.657990 454.317169,488.895721 
	C454.989594,487.440369 455.248383,485.157349 457.173096,485.168640 
	C459.903778,485.184662 460.163239,483.212860 461.283844,481.616302 
	C465.012787,476.303528 464.567932,470.247742 464.779419,464.287811 
	C464.861420,461.977631 464.421082,459.527161 466.419464,457.736938 
	C468.711121,455.683899 468.531250,453.230438 468.266815,450.419800 
	C467.682770,444.212402 464.723724,438.695343 463.645508,432.622620 
	C462.287445,424.974152 459.317108,417.272278 452.640167,413.362823 
	C445.719177,409.310455 443.336334,403.752136 441.600647,396.742950 
	C438.927979,385.949921 436.694153,374.834778 431.164917,365.108917 
	C424.183899,352.829376 421.260773,339.187561 416.515747,326.160889 
	C416.293945,325.551941 415.975128,324.773254 416.170654,324.248352 
	C418.820648,317.134918 413.136871,313.089447 410.696381,307.375824 
	C402.333862,312.732544 393.777649,316.167725 385.478455,320.138641 
	C382.423584,321.600311 379.792511,319.620605 377.554260,320.805756 
	C370.928558,324.314056 363.234589,323.586700 356.447510,326.752075 
	C353.135986,328.296570 349.099579,330.215637 344.419067,329.119873 
	C345.817810,327.031586 348.309692,327.549438 349.070953,325.637665 
	C348.048431,323.784576 346.569519,324.460602 345.190491,324.973267 
	C333.152679,329.448425 321.405853,326.520538 309.646423,323.635162 
	C303.845428,322.211792 298.034363,320.827026 292.212006,319.494049 
	C289.623779,318.901459 287.208221,318.858337 287.295624,321.928833 
	C281.016388,323.049652 275.408752,321.280701 269.731201,320.658997 
	C260.003174,319.593719 251.912170,314.717834 242.933273,312.101288 
	C240.823639,311.486511 238.756729,308.920776 236.684464,311.425537 
	C234.083954,314.568787 230.586243,318.235657 232.037720,322.292633 
	C232.980713,324.928284 232.457901,326.097961 231.376251,327.920929 
	C230.616989,329.200562 229.691055,330.582031 229.543655,331.991608 
	C228.517319,341.806702 223.761047,350.321320 220.166473,359.219147 
	C214.549988,373.121826 209.054657,387.036438 205.904648,401.770569 
	C205.111984,405.478302 204.107315,409.366913 200.264435,411.352203 
	C192.306458,415.463470 189.907104,423.538330 187.079391,430.901703 
	C184.720810,437.043427 184.030930,443.828857 182.638931,450.337128 
	C182.219345,452.298767 181.498047,454.795471 182.910568,456.120056 
	C186.075287,459.087738 185.489594,462.848541 185.771423,466.350464 
	C186.441849,474.681091 188.090225,482.437683 196.645676,486.249359 
	C200.535446,487.982391 201.104050,492.617554 204.227768,494.449310 
	C214.455597,500.447021 224.931900,505.828827 237.465363,500.944489 
	C241.898880,499.216736 245.282135,494.557495 244.288040,490.000854 
	C243.963867,488.514923 243.328796,487.075806 244.372086,485.713165 
	C245.935394,483.671326 245.174652,481.687103 243.783340,480.273071 
	C238.819977,475.228668 242.153885,467.815277 238.461975,462.474579 
	C241.344467,459.097717 236.559250,455.514526 238.752106,452.098083 
	C240.142990,449.931061 239.818787,447.633606 239.000122,445.377686 
	C237.364944,440.871643 236.197556,436.086639 233.845917,431.985077 
	C232.033249,428.823578 234.788498,425.074158 233.213135,423.560669 
	C229.298752,419.799896 231.092636,415.552216 230.657547,410.593994 
M371.033264,247.572830 
	C364.904938,247.590225 358.744080,249.365585 352.604919,247.610107 
	C358.078949,244.452728 364.005096,243.927811 369.916229,243.666656 
	C390.295380,242.766235 410.496033,244.582321 430.504883,248.368515 
	C436.375793,249.479431 441.020844,245.665192 447.217773,246.243423 
	C444.914307,241.720367 442.972748,238.278717 441.377594,234.683350 
	C439.317169,230.039276 439.872498,229.199860 444.705231,228.829910 
	C446.035034,228.728119 447.527832,228.940323 448.071808,227.347534 
	C448.515747,226.047668 447.534515,225.201233 446.695648,224.367050 
	C437.486450,215.208969 434.845764,202.651367 430.086975,191.278473 
	C428.658783,187.865143 427.864105,183.997482 425.793549,180.855560 
	C423.917877,178.009369 422.421509,175.197067 422.195099,171.744690 
	C428.088776,169.242508 427.187592,163.150894 428.770325,158.636887 
	C433.605011,144.848267 435.429871,130.531204 433.627808,115.922668 
	C432.530548,107.027412 431.606537,98.080086 427.485626,89.862373 
	C425.615356,86.132782 423.204010,85.304665 419.400452,87.102196 
	C399.556854,96.480148 383.779755,110.757011 370.245056,127.727058 
	C368.489746,129.927872 366.725769,131.020187 363.869598,130.394852 
	C359.978271,129.542862 355.976318,129.154190 352.127930,128.157120 
	C344.557159,126.195671 336.821655,125.209663 329.178772,123.737953 
	C323.172272,122.581345 316.980927,123.211166 311.484650,123.665749 
	C303.190552,124.351730 294.885437,128.027451 286.514282,130.108505 
	C282.469879,131.113937 278.087036,131.728104 274.647095,127.592857 
	C261.768860,112.111618 246.864899,99.059227 228.964951,89.518623 
	C221.939590,85.774147 217.466171,87.057678 215.361069,94.650269 
	C210.244278,113.105095 210.275620,131.731567 213.730011,150.470856 
	C215.086884,157.831635 215.717117,165.389877 221.470718,171.086105 
	C222.274094,171.881470 221.658447,172.947739 221.666794,173.910599 
	C221.739182,182.270615 215.215225,188.179550 213.921310,196.531921 
	C212.532379,205.497757 207.539673,214.308853 202.025314,222.152710 
	C197.577240,228.479797 197.547791,228.459091 204.815704,230.610458 
	C204.989502,234.574677 204.979767,234.568665 201.038467,240.953674 
	C200.168259,242.363419 199.058044,243.884140 199.895920,245.572571 
	C200.760361,247.314499 202.479095,246.719910 203.904556,246.354111 
	C205.546463,245.932755 206.811035,246.242310 207.847290,247.646484 
	C209.256866,249.556564 211.101608,249.392548 213.231812,248.946075 
	C233.996902,244.593994 254.956909,242.334091 276.188812,243.777252 
	C281.486298,244.137344 286.747711,245.080017 292.010193,245.859680 
	C293.109833,246.022598 294.322052,246.492050 294.026184,248.091309 
	C292.830383,249.526718 291.206635,249.183319 289.819214,248.954819 
	C271.031891,245.860580 252.275131,247.520096 233.543945,249.388428 
	C226.270981,250.113861 219.035172,251.335709 211.940125,253.219742 
	C209.147873,253.961197 207.052109,255.485474 206.503677,258.421234 
	C205.891937,261.695862 208.782516,261.400421 210.615875,262.246918 
	C211.478638,262.645264 212.142136,263.503937 212.852936,264.198059 
	C219.482849,270.672577 220.999649,270.935974 229.615112,267.294800 
	C246.091415,260.331360 263.131500,255.281540 280.888428,253.015610 
	C284.794495,252.517151 289.026917,251.109161 292.968903,253.339874 
	C291.165131,260.763336 292.621185,263.506042 299.688995,266.389740 
	C304.859192,268.499207 312.351349,266.427856 316.897400,261.632172 
	C321.084167,257.215485 321.116577,254.704895 317.105896,250.023026 
	C315.162903,247.754822 313.388672,245.411530 310.565826,243.991760 
	C308.048676,242.725723 307.519714,240.198761 307.855743,237.523087 
	C308.192719,234.840256 310.285583,234.223129 312.428711,233.610611 
	C317.993805,232.020081 323.687012,232.935455 329.317444,232.772217 
	C332.697815,232.674210 336.158875,233.138931 337.467560,237.096054 
	C338.902863,241.436035 336.051117,243.212646 332.875305,245.261063 
	C325.340881,250.120804 324.005432,256.934906 329.441925,261.719788 
	C333.175598,265.005951 337.684906,266.823853 342.704987,266.740112 
	C350.765198,266.605713 356.271759,260.010345 353.863800,253.610413 
	C358.153961,251.949402 359.852570,251.920227 364.445831,252.594498 
	C381.995667,255.170761 398.854675,260.281952 415.425293,266.425354 
	C419.511475,267.940277 423.276001,269.459412 427.916260,267.979980 
	C432.590485,266.489716 433.691467,261.242004 438.119965,259.574677 
	C439.523254,259.046326 438.498444,256.848785 437.615784,255.594452 
	C436.273041,253.686310 434.154175,252.896927 432.049835,252.534607 
	C412.169342,249.111786 392.213959,246.470963 371.033264,247.572830 
M417.183960,273.234680 
	C415.365173,270.557159 412.395599,269.739868 409.630035,268.649109 
	C399.537689,264.668640 389.106049,261.791229 378.517761,259.526215 
	C373.564209,258.466553 368.651306,256.525848 363.457642,257.586029 
	C362.840729,261.010925 362.840729,261.010925 358.081421,265.500549 
	C349.301270,273.783142 339.379669,275.297791 329.456757,268.548462 
	C324.151978,264.940277 320.700470,265.425720 315.826569,269.047455 
	C306.385376,276.063110 290.794312,272.449554 285.399933,261.992462 
	C283.795959,258.883179 283.390533,256.517487 279.094940,257.265564 
	C263.455780,259.989075 248.198669,264.008606 233.525162,270.079193 
	C231.433731,270.944427 227.961578,271.553162 228.811401,274.850098 
	C229.611649,277.954803 230.885147,281.425751 234.737579,282.221497 
	C236.252991,282.534485 237.598343,282.639862 238.570465,284.057404 
	C242.271759,289.454651 249.510300,290.502625 253.257889,295.898895 
	C253.574249,296.354431 254.527328,296.767670 255.029358,296.630859 
	C258.931854,295.567261 261.158905,298.357483 263.811554,300.237549 
	C265.295837,301.289551 266.778870,302.794525 268.435364,303.075348 
	C276.155640,304.384186 283.370819,307.466278 291.050751,309.090637 
	C299.367340,310.849579 307.228424,314.052002 316.010132,314.930359 
	C327.250244,316.054565 337.819275,313.492554 348.310608,311.229706 
	C353.846191,310.035767 360.139160,309.412231 365.190674,305.825897 
	C365.859283,305.351196 367.250122,305.378357 368.067749,305.729309 
	C370.206177,306.647308 371.881470,305.685455 373.762329,304.971558 
	C379.574432,302.765533 383.932983,297.517365 390.671661,297.126984 
	C392.095795,297.044464 393.999481,295.698669 394.706146,294.402710 
	C398.008759,288.346313 405.100555,288.039307 409.894043,284.131165 
	C413.532593,281.164673 416.707947,278.631592 417.183960,273.234680 
M525.313538,485.115936 
	C524.425171,483.621307 523.153809,482.685272 521.479675,482.137848 
	C508.083557,477.757050 494.422394,475.296997 480.267212,476.299438 
	C477.283508,476.510681 474.012665,477.296173 473.702820,480.511017 
	C473.360504,484.062744 471.713562,488.153748 475.060394,491.349854 
	C481.727753,497.716827 491.361176,497.357239 498.911957,501.762177 
	C499.452850,502.077728 500.509125,501.564789 501.309784,501.370972 
	C506.553070,500.101837 509.051575,502.438110 508.200562,507.835510 
	C507.443573,512.636353 504.392487,515.583069 500.062531,517.083130 
	C494.565216,518.987549 488.978821,520.913757 483.102448,521.031982 
	C469.451630,521.306763 458.393799,527.891479 447.713501,535.328003 
	C445.320648,536.994141 442.188904,539.010254 445.198853,542.942810 
	C446.034668,544.034790 444.958282,545.449036 444.180359,546.571777 
	C442.664490,548.759644 441.220459,550.997253 439.710632,553.189453 
	C437.898254,555.820984 438.878448,557.546814 441.509613,558.646851 
	C442.726868,559.155762 444.058197,559.802246 445.310852,559.749146 
	C453.198792,559.414917 460.839355,564.509033 468.880737,560.818726 
	C469.425385,560.568787 470.400116,560.529236 470.822662,560.852356 
	C474.990936,564.039917 478.984833,562.169922 483.041199,560.633545 
	C483.764526,560.359497 484.953827,560.118042 485.394989,560.491394 
	C488.197571,562.863281 490.689423,560.969116 493.336426,560.234619 
	C496.022644,559.489197 499.117889,557.137512 501.336975,558.392944 
	C505.748962,560.889038 508.169495,557.924561 511.189331,556.227722 
	C513.289917,555.047363 514.548584,552.508606 517.020264,552.315735 
	C518.755005,552.893555 517.210022,554.753784 517.900208,554.997375 
	C531.195679,550.939575 537.141357,538.450134 547.574280,531.671692 
	C549.502258,532.560730 547.987610,534.543213 549.267395,535.877014 
	C550.914612,533.110657 551.733643,530.229431 551.736267,527.255554 
	C551.750610,511.128082 546.846252,497.555298 531.705750,489.397186 
	C529.665466,488.297852 527.786133,486.899628 525.313538,485.115936 
M416.071167,525.701355 
	C424.049957,526.527588 421.649780,534.218384 424.024384,538.711670 
	C428.033447,536.395752 428.905304,532.840088 426.955109,528.410278 
	C423.456970,520.464417 415.905823,516.724121 404.589630,517.332153 
	C397.102539,517.734314 393.526764,520.548767 390.817993,527.492615 
	C389.208038,531.619751 392.714355,534.334717 393.067841,537.849121 
	C393.361816,540.771729 393.985779,543.240723 397.707977,542.795593 
	C401.457306,542.347046 402.070435,539.469788 401.913269,536.543640 
	C401.740143,533.320557 401.027222,530.126465 400.539703,526.854004 
	C403.584900,526.239319 404.672241,527.777039 405.419342,530.085571 
	C406.463562,533.312439 406.563354,536.566895 406.451233,539.920288 
	C406.315765,543.972351 409.036560,545.747437 412.608337,543.991638 
	C415.572205,542.534607 417.522980,540.305359 417.842896,536.696106 
	C418.180115,532.891663 416.742401,529.593384 416.071167,525.701355 
M243.392609,543.605408 
	C246.184509,539.981140 243.612411,535.409729 245.534683,531.596802 
	C246.654114,529.376282 246.723587,526.259949 250.312805,526.416504 
	C251.880905,528.445007 250.520126,530.108521 250.024307,531.756042 
	C249.387238,533.872864 248.954468,535.991577 249.470764,538.143433 
	C250.042999,540.528381 251.231293,542.551453 253.990646,542.812317 
	C256.842682,543.081726 257.681671,540.835571 258.296936,538.777405 
	C259.838867,533.619446 263.152740,528.044250 255.720016,524.452698 
	C255.461151,524.327637 255.352173,523.909241 255.151779,523.643799 
	C250.163666,517.036438 245.621338,515.508240 237.745987,518.152466 
	C234.928680,519.098450 232.200439,520.439819 229.616684,521.923218 
	C224.701294,524.745239 222.382965,529.991699 223.377441,535.527039 
	C223.737823,537.533020 224.362457,539.397461 226.979980,539.394897 
	C228.999054,536.744263 228.474762,533.499390 229.641220,530.760437 
	C230.782059,528.081726 231.458954,525.056091 235.798004,525.656067 
	C234.631119,529.448181 232.932129,532.762634 233.309311,536.555176 
	C233.839676,541.887817 237.356125,544.724670 243.392609,543.605408 
M326.340698,240.677902 
	C324.561829,237.377686 321.978058,236.654968 318.347382,238.120819 
	C318.974030,241.318085 319.735168,244.488480 322.892334,245.365463 
	C325.564697,246.107788 325.456146,242.997147 326.340698,240.677902 
M251.582458,551.382324 
	C250.899551,551.781616 249.842712,552.769104 250.668930,553.038696 
	C253.049103,553.815369 255.824387,554.855103 257.749115,551.689941 
	C254.981598,550.495850 254.981598,550.495850 251.582458,551.382324 
z"/>
<path fill="#000000" opacity="1.000000" stroke="none" 
	d="
M469.261292,156.618469 
	C467.799835,156.148010 466.611633,155.968964 465.585602,155.461853 
	C463.184174,154.274963 462.539215,152.095764 465.181946,151.127060 
	C475.325378,147.408997 478.212036,139.138626 479.571136,129.682037 
	C479.708801,128.724197 480.110718,127.793625 480.480286,126.887207 
	C480.575623,126.653351 481.013947,126.559334 481.494385,126.288589 
	C483.400513,128.084564 483.385651,130.731567 484.240387,132.959579 
	C486.807098,139.650055 490.282501,145.526382 497.144318,148.681152 
	C500.730194,150.329803 500.317841,151.971222 497.134521,153.724014 
	C490.170410,157.558578 486.676697,163.596451 485.884674,171.427689 
	C485.685150,173.400528 486.038055,175.880600 482.793945,177.145645 
	C479.437103,169.698425 478.425568,160.549561 469.261292,156.618469 
z"/>
<path fill="#000000" opacity="1.000000" stroke="none" 
	d="
M520.693237,182.780609 
	C516.823669,185.547455 519.610046,190.917709 515.158081,194.082901 
	C512.930054,187.661362 510.886169,181.225357 503.467102,180.529327 
	C503.296631,178.275696 504.325806,177.676620 505.445190,177.319443 
	C509.817902,175.924225 511.578705,172.567459 512.284119,168.394974 
	C512.501648,167.108276 512.374573,165.522003 514.152283,165.354935 
	C515.792114,165.200806 516.411865,166.631165 516.857117,167.840973 
	C518.113892,171.256012 519.797119,174.106506 523.751526,174.943390 
	C525.180176,175.245758 526.812073,175.904022 526.848145,177.693863 
	C526.884216,179.482666 525.157776,179.936340 523.886719,180.671387 
	C522.888428,181.248627 521.930298,181.895370 520.693237,182.780609 
z"/>
<path fill="#000000" opacity="1.000000" stroke="none" 
	d="
M511.921509,118.742401 
	C511.243713,112.961403 506.634277,111.371681 502.061890,108.923172 
	C510.616425,107.352333 510.278107,100.194176 512.428345,94.348320 
	C515.260559,96.944366 514.446472,100.489166 515.906677,103.166054 
	C517.486877,106.063034 520.775635,106.215393 524.136780,108.739494 
	C517.725281,109.881020 515.694519,113.720139 515.055481,118.904648 
	C514.766357,121.250549 513.168579,120.700325 511.921509,118.742401 
z"/>
<path fill="#000000" opacity="1.000000" stroke="none" 
	d="
M306.910828,349.784851 
	C304.882629,352.434265 303.470154,354.979340 302.392609,358.066620 
	C305.337860,358.860352 306.543457,355.091675 309.329010,356.497955 
	C310.675201,360.091492 306.777344,363.068390 307.720306,367.163666 
	C313.190460,365.100800 313.195831,368.190826 312.603699,372.304230 
	C311.928558,376.994324 314.264252,380.982910 316.262024,385.003967 
	C317.030212,386.550171 318.831146,387.739288 318.004974,390.198517 
	C314.255920,389.897919 313.071838,386.776337 311.687500,384.213074 
	C310.439606,381.902374 309.250153,380.215485 306.350311,379.675415 
	C302.625153,378.981567 302.666138,375.427612 302.149597,372.534119 
	C301.776611,370.444733 302.729584,368.230682 301.792175,366.299011 
	C300.052490,364.939453 298.459564,367.195282 296.873322,366.096924 
	C295.483215,360.679199 301.811005,348.906494 307.545044,346.352966 
	C308.569397,347.554993 307.654602,348.495422 306.910828,349.784851 
z"/>
<path fill="#000000" opacity="1.000000" stroke="none" 
	d="
M437.117981,413.784332 
	C441.600494,412.380829 441.846985,412.380463 446.517517,413.993439 
	C438.220032,418.098267 431.972870,423.723206 425.709229,429.503021 
	C426.872894,422.489746 430.891022,417.565582 437.117981,413.784332 
z"/>
<path fill="#000000" opacity="1.000000" stroke="none" 
	d="
M221.800385,422.305176 
	C222.916122,425.063110 225.099380,426.924377 225.638641,430.803467 
	C217.101761,426.440460 213.559250,416.861511 203.951233,414.739624 
	C209.347946,412.093719 214.519165,414.445740 221.800385,422.305176 
z"/>
<path fill="#000000" opacity="1.000000" stroke="none" 
	d="
M279.894623,524.932068 
	C287.993591,521.395447 298.830475,523.273071 302.696594,528.603088 
	C300.736420,530.269104 298.793915,528.735352 297.134094,528.247437 
	C291.454681,526.577759 285.328369,527.693115 279.894623,524.932068 
z"/>
<path fill="#000000" opacity="1.000000" stroke="none" 
	d="
M359.555908,523.188965 
	C363.754486,522.641968 367.408325,523.098938 372.340912,524.650574 
	C364.007690,527.497925 356.370880,526.530334 349.108978,528.505554 
	C351.423035,524.596985 355.438629,524.231262 359.555908,523.188965 
z"/>
<path fill="#000000" opacity="1.000000" stroke="none" 
	d="
M243.452866,211.647751 
	C242.397522,207.360214 237.829575,206.113098 236.296936,201.934204 
	C242.755875,199.659424 245.996307,194.042297 249.975769,189.306412 
	C258.584534,179.061264 269.460480,175.275635 282.097260,178.737762 
	C293.984619,181.994568 302.495636,194.847214 303.289459,208.662262 
	C303.479980,211.977585 303.056122,215.343292 303.417175,218.630661 
	C304.189758,225.665039 300.497833,229.388626 294.511688,231.751114 
	C284.455261,235.719955 274.123474,236.831589 263.744843,233.716843 
	C252.956116,230.479050 246.836731,222.460617 243.452866,211.647751 
M269.212860,202.924515 
	C274.221771,203.647644 276.531250,200.603180 277.734406,196.477112 
	C278.661346,193.298340 276.294342,189.430328 273.635315,189.812729 
	C270.325897,190.288696 267.095795,191.652908 265.679169,195.043442 
	C264.321869,198.291946 265.717957,200.826492 269.212860,202.924515 
M259.973053,222.959137 
	C257.630280,217.312729 256.880463,211.225952 255.982269,204.241745 
	C250.544846,211.687057 251.364960,221.003448 256.870544,225.243103 
	C259.072876,226.939011 260.595764,227.228378 259.973053,222.959137 
M279.908325,225.920410 
	C279.419037,225.834579 278.930115,225.746643 278.440399,225.663315 
	C276.777466,225.380295 274.787201,224.925522 274.624115,227.349228 
	C274.499298,229.204025 276.346130,229.655197 277.826660,229.755173 
	C281.007294,229.969925 284.321838,230.426453 287.014191,227.551254 
	C285.028809,225.510910 282.756439,226.207382 279.908325,225.920410 
z"/>
<path fill="#000000" opacity="1.000000" stroke="none" 
	d="
M342.952026,205.291626 
	C345.052521,195.075729 349.129303,186.648331 358.286621,181.470291 
	C370.213745,174.726105 383.081543,177.050156 394.562744,187.972031 
	C399.338562,192.515137 402.303558,198.904282 408.961731,201.528000 
	C408.724060,202.476822 408.776794,203.392975 408.384583,203.663132 
	C402.484833,207.726517 401.278076,214.591568 398.186127,220.352295 
	C391.977112,231.920685 380.438354,236.998566 364.905334,235.102554 
	C358.428375,234.311966 352.264862,232.383209 346.550842,229.069962 
	C343.795258,227.472168 342.470642,225.277588 342.534027,222.173721 
	C342.645996,216.690628 342.783508,211.208038 342.952026,205.291626 
M356.931824,192.360260 
	C355.323883,193.649734 354.254486,195.273560 354.073517,197.353043 
	C353.804535,200.443741 354.428375,203.215118 358.157898,203.355972 
	C361.263000,203.473221 363.271942,201.435608 364.579620,198.735260 
	C365.463165,196.910675 366.217621,195.065384 364.643585,193.220840 
	C362.643738,190.877213 360.258423,190.543045 356.931824,192.360260 
M385.849152,223.750565 
	C385.484039,224.631912 384.697144,225.470413 385.553284,226.481934 
	C393.508881,224.702484 396.580414,212.731552 390.013062,205.363632 
	C389.385803,211.897858 389.107117,217.883835 385.849152,223.750565 
M367.946991,229.603424 
	C370.665009,228.576157 374.360352,229.137466 375.781586,224.144714 
	C369.390259,226.676666 363.527222,226.390869 357.522614,224.988098 
	C359.326233,229.916306 363.209198,229.867981 367.946991,229.603424 
M378.863861,220.750778 
	C380.543915,220.633606 381.947937,219.944107 381.215881,218.084564 
	C380.727295,216.843399 379.114258,216.322784 377.874084,217.145950 
	C376.058350,218.351135 376.914886,219.569183 378.863861,220.750778 
z"/>
<path fill="#000000" opacity="1.000000" stroke="none" 
	d="
M238.847122,131.223953 
	C239.468094,130.143707 239.566406,129.064728 238.818665,128.692078 
	C235.455490,127.015923 233.482132,124.673553 233.916367,120.667305 
	C234.296799,117.157539 231.349686,115.679062 229.253677,113.921028 
	C229.572968,111.716873 231.954834,113.417847 232.412857,111.771767 
	C232.932495,109.212181 229.924179,108.524582 229.325775,105.940132 
	C234.466156,103.629501 232.612061,100.996704 229.304138,98.236557 
	C226.814377,96.159073 224.489563,93.883919 221.643082,91.287956 
	C224.963028,90.028259 227.463623,91.006767 229.552628,92.426231 
	C244.810272,102.793610 255.786087,116.710022 263.028809,133.602524 
	C264.152405,136.223160 263.936035,136.366104 262.386871,140.396347 
	C258.706665,139.513611 255.310928,136.823715 251.206009,137.859161 
	C250.497559,140.141174 253.230118,140.516647 253.233673,142.308502 
	C252.182968,146.506058 243.231949,141.307831 244.699814,149.609909 
	C242.581909,151.004395 240.219162,152.488586 238.817734,156.030487 
	C237.113724,160.337097 232.369858,163.046249 228.404053,165.776428 
	C226.585663,167.028229 224.380096,166.145340 222.917786,164.662338 
	C216.972046,158.632568 217.319244,150.818008 217.024567,143.134827 
	C220.267975,149.604980 220.194916,157.619415 226.948318,163.104630 
	C228.904190,159.398560 231.025116,156.116074 232.394485,152.545364 
	C233.436432,149.828476 229.762314,150.148468 228.697540,148.321945 
	C230.756454,143.653152 236.692673,143.453995 239.543030,139.635498 
	C234.041153,133.947357 234.041153,133.947357 238.847122,131.223953 
z"/>
<path fill="#000000" opacity="1.000000" stroke="none" 
	d="
M411.289337,94.132126 
	C414.690277,92.286957 417.800171,90.660011 422.109589,88.405533 
	C420.449097,93.582916 417.571930,96.041168 414.421967,98.597778 
	C417.108917,99.447609 418.557190,96.342812 421.929352,98.087013 
	C416.272461,100.003616 416.155304,106.206337 411.378296,108.353722 
	C414.942780,114.470200 409.039368,117.087845 407.019592,121.083305 
	C406.626099,122.774178 409.254913,122.560036 408.936859,124.348701 
	C407.639862,126.094765 404.942902,126.486847 403.876862,128.722427 
	C404.135376,130.758102 406.092133,130.432556 407.267303,131.162857 
	C408.883911,132.167480 410.732361,133.378372 409.934845,135.424438 
	C408.071381,140.205368 410.211853,142.965881 414.023804,145.276764 
	C414.818085,145.758286 415.295319,146.762787 415.891235,147.492691 
	C413.020721,151.619125 414.403473,157.940598 419.227051,162.486252 
	C423.882111,157.773392 424.778564,151.234818 427.517273,145.567642 
	C428.876556,152.973938 425.906891,159.119949 421.825623,164.760849 
	C420.361267,166.784760 417.858521,166.061142 415.915100,164.772034 
	C409.606476,160.587448 405.660492,154.118546 400.547333,148.776047 
	C399.320496,147.494110 401.734131,146.374481 400.647461,145.159485 
	C398.203735,142.446091 394.065399,144.666794 391.534027,142.179657 
	C391.587585,138.971313 395.178314,139.500656 396.452911,137.119659 
	C393.067352,135.740128 390.293549,137.749115 387.405670,138.193954 
	C385.495453,138.488190 383.526337,139.839706 381.912872,137.726761 
	C380.476624,135.845795 381.394012,133.892410 382.057007,132.022690 
	C384.767822,124.377785 389.618744,117.954834 394.508850,111.709167 
	C399.419006,105.437912 404.990906,99.652092 411.289337,94.132126 
z"/>
<path fill="#000000" opacity="1.000000" stroke="none" 
	d="
M368.051331,154.810486 
	C376.183136,155.656937 383.029785,158.163132 387.862488,164.664001 
	C389.256989,166.539886 390.176178,168.598267 388.471680,170.552216 
	C386.911926,172.340302 384.928772,171.046051 383.450317,170.184464 
	C377.460846,166.694046 371.180817,164.377213 364.164551,164.102829 
	C361.687988,164.005966 359.540375,162.702713 359.295990,159.931412 
	C359.035583,156.978226 361.390900,156.002274 363.667847,155.312164 
	C364.919708,154.932709 366.296753,154.966202 368.051331,154.810486 
z"/>
<path fill="#000000" opacity="1.000000" stroke="none" 
	d="
M285.799377,160.086761 
	C285.262726,163.332855 283.086823,164.056885 280.653076,164.244217 
	C274.265686,164.735794 268.347595,166.595169 262.808960,169.830963 
	C261.188385,170.777725 259.149200,172.361069 257.447357,170.280716 
	C255.824005,168.296295 256.982697,166.273239 258.274780,164.393631 
	C262.511322,158.230835 273.592133,153.784897 280.760620,155.608307 
	C282.966461,156.169373 285.371704,156.821823 285.799377,160.086761 
z"/>
<path fill="#000000" opacity="1.000000" stroke="none" 
	d="
M306.938904,288.314575 
	C306.439331,287.283539 306.112305,286.548553 305.574432,285.339691 
	C308.763214,285.220306 311.503906,285.483765 313.860413,286.881989 
	C320.675293,290.925476 327.402893,290.640869 334.167145,286.921661 
	C335.617371,286.124268 337.369812,284.614532 338.583282,286.283081 
	C340.173584,288.469666 337.915588,289.952209 336.430969,291.103973 
	C330.433716,295.756744 315.791046,297.483459 306.938904,288.314575 
z"/>
</svg>